<svg width="300" height="200" viewBox="0 0 300 200" fill="none" xmlns="http://www.w3.org/2000/svg">
<path d="M70.56 31.836H9.64V72.624H70.56V31.836Z" fill="white"/>
<path d="M70.556 72.628C70.556 72.628 70.556 72.372 70.556 71.884C70.556 71.396 70.556 70.684 70.556 69.732C70.556 67.844 70.556 65.076 70.536 61.528C70.536 54.444 70.508 44.256 70.488 31.836L70.576 31.924L9.66401 31.948L9.77201 31.836C9.77201 46.368 9.77201 60.188 9.77201 72.636L9.67201 72.536L53.56 72.584L66.096 72.612H69.432H70.292H70.588H70.304H69.456H66.14L53.624 72.636L9.67201 72.688H9.57201V72.588C9.57201 60.148 9.57201 46.328 9.57201 31.788V31.68H9.68801L70.6 31.704H70.688V31.788C70.668 44.232 70.652 54.436 70.644 61.536C70.644 65.072 70.624 67.836 70.62 69.72C70.62 70.652 70.62 71.368 70.62 71.856C70.62 72.344 70.556 72.628 70.556 72.628Z" fill="#E0E0E0"/>
<path d="M9.64 35.476C9.64 35.416 23.264 35.368 40.072 35.368C56.88 35.368 70.508 35.416 70.508 35.476C70.508 35.536 56.884 35.588 40.072 35.588C23.26 35.588 9.64 35.54 9.64 35.476Z" fill="#E0E0E0"/>
<g opacity="0.3">
<path d="M12.04 33.64C12.04 33.7694 11.9886 33.8935 11.8971 33.985C11.8056 34.0766 11.6814 34.128 11.552 34.128C11.4226 34.128 11.2985 34.0766 11.2069 33.985C11.1154 33.8935 11.064 33.7694 11.064 33.64C11.064 33.5106 11.1154 33.3864 11.2069 33.2949C11.2985 33.2034 11.4226 33.152 11.552 33.152C11.6814 33.152 11.8056 33.2034 11.8971 33.2949C11.9886 33.3864 12.04 33.5106 12.04 33.64Z" fill="#E0E0E0"/>
</g>
<g opacity="0.3">
<path d="M13.716 33.64C13.716 33.7365 13.6874 33.8308 13.6338 33.9111C13.5801 33.9913 13.5039 34.0539 13.4148 34.0908C13.3256 34.1278 13.2275 34.1374 13.1328 34.1186C13.0381 34.0998 12.9512 34.0533 12.8829 33.985C12.8147 33.9168 12.7682 33.8298 12.7494 33.7352C12.7306 33.6405 12.7402 33.5424 12.7772 33.4532C12.8141 33.3641 12.8766 33.2878 12.9569 33.2342C13.0371 33.1806 13.1315 33.152 13.228 33.152C13.3574 33.152 13.4816 33.2034 13.5731 33.2949C13.6646 33.3864 13.716 33.5106 13.716 33.64Z" fill="#E0E0E0"/>
</g>
<g opacity="0.3">
<path d="M15.364 33.64C15.364 33.7365 15.3354 33.8308 15.2818 33.9111C15.2281 33.9913 15.1519 34.0539 15.0628 34.0908C14.9736 34.1278 14.8755 34.1374 14.7808 34.1186C14.6861 34.0998 14.5992 34.0533 14.5309 33.985C14.4627 33.9168 14.4162 33.8298 14.3974 33.7352C14.3785 33.6405 14.3882 33.5424 14.4251 33.4532C14.4621 33.3641 14.5246 33.2878 14.6049 33.2342C14.6851 33.1806 14.7795 33.152 14.876 33.152C15.0054 33.152 15.1296 33.2034 15.2211 33.2949C15.3126 33.3864 15.364 33.5106 15.364 33.64Z" fill="#E0E0E0"/>
</g>
<path d="M31.124 39.732H14.876V55.984H31.124V39.732Z" fill="#E0E0E0"/>
<path d="M62.204 44.324C62.204 44.384 55.864 44.432 48.048 44.432C40.232 44.432 33.892 44.384 33.892 44.324C33.892 44.264 40.232 44.216 48.048 44.216C55.864 44.216 62.204 44.264 62.204 44.324Z" fill="#E0E0E0"/>
<path d="M62.204 47.344C62.204 47.404 55.864 47.452 48.048 47.452C40.232 47.452 33.892 47.404 33.892 47.344C33.892 47.284 40.232 47.236 48.048 47.236C55.864 47.236 62.204 47.284 62.204 47.344Z" fill="#E0E0E0"/>
<path d="M62.204 50.364C62.204 50.424 55.864 50.472 48.048 50.472C40.232 50.472 33.892 50.424 33.892 50.364C33.892 50.304 40.232 50.256 48.048 50.256C55.864 50.256 62.204 50.304 62.204 50.364Z" fill="#E0E0E0"/>
<path d="M50.624 53.384C50.407 53.4171 50.1875 53.4318 49.968 53.428L48.176 53.46C46.66 53.46 44.576 53.492 42.26 53.492C39.944 53.492 37.86 53.492 36.344 53.46L34.552 53.428C34.3312 53.4316 34.1104 53.4169 33.892 53.384C34.1104 53.3511 34.3312 53.3364 34.552 53.34L36.344 53.308C37.856 53.288 39.944 53.276 42.26 53.276C44.576 53.276 46.66 53.276 48.176 53.308L49.968 53.34C50.1875 53.3362 50.407 53.3509 50.624 53.384Z" fill="#E0E0E0"/>
<path d="M23.528 61.46H15.892V69.096H23.528V61.46Z" fill="#E0E0E0"/>
<path d="M37.376 61.46H29.74V69.096H37.376V61.46Z" fill="#E0E0E0"/>
<path d="M51.228 61.46H43.592V69.096H51.228V61.46Z" fill="#E0E0E0"/>
<path d="M65.076 61.46H57.44V69.096H65.076V61.46Z" fill="#E0E0E0"/>
<path d="M132.024 12.016H79.548V33.332H132.024V12.016Z" fill="white"/>
<path d="M132.024 33.332C132.024 33.332 132.024 33.2 132.024 32.932C132.024 32.664 132.024 32.308 132.024 31.824C132.024 30.852 132.024 29.424 132.024 27.584C132.024 23.904 132.004 18.584 131.992 11.984L132.052 12.044L79.576 12.068L79.656 11.984C79.656 19.448 79.656 26.656 79.656 33.3L79.58 33.22L117.204 33.256L128.116 33.28H131.04H128.136L117.24 33.3L79.564 33.34H79.484V33.26C79.484 26.616 79.484 19.408 79.484 11.944V11.86H79.568L132.044 11.888H132.1V12C132.1 18.604 132.076 23.936 132.068 27.624C132.068 29.456 132.068 30.884 132.068 31.852C132.068 32.332 132.068 32.696 132.068 32.948C132.068 33.2 132.024 33.332 132.024 33.332Z" fill="#E0E0E0"/>
<path d="M79.6 14.892C79.6 14.844 91.328 14.808 105.792 14.808C120.256 14.808 131.992 14.844 131.992 14.892C131.992 14.94 120.264 14.976 105.792 14.976C91.32 14.976 79.6 14.936 79.6 14.892Z" fill="#E0E0E0"/>
<g opacity="0.3">
<path d="M81.796 13.6C81.7959 13.6743 81.774 13.7469 81.7331 13.8089C81.6922 13.8708 81.634 13.9195 81.5657 13.9487C81.4974 13.978 81.422 13.9866 81.3489 13.9735C81.2758 13.9604 81.2081 13.9261 81.1543 13.8749C81.1004 13.8238 81.0628 13.758 81.0459 13.6856C81.0291 13.6133 81.0338 13.5376 81.0595 13.4679C81.0852 13.3982 81.1308 13.3376 81.1906 13.2935C81.2504 13.2494 81.3218 13.2239 81.396 13.22C81.4987 13.2198 81.5975 13.2592 81.672 13.33C81.7465 13.4007 81.7909 13.4974 81.796 13.6Z" fill="#EBEBEB"/>
</g>
<g opacity="0.3">
<path d="M83.1 13.6C83.1 13.6751 83.0777 13.7486 83.036 13.8111C82.9942 13.8736 82.9349 13.9223 82.8654 13.951C82.796 13.9798 82.7196 13.9873 82.6459 13.9727C82.5722 13.958 82.5045 13.9218 82.4513 13.8687C82.3982 13.8155 82.362 13.7478 82.3473 13.6741C82.3327 13.6004 82.3402 13.524 82.3689 13.4546C82.3977 13.3851 82.4464 13.3258 82.5089 13.284C82.5714 13.2423 82.6449 13.22 82.72 13.22C82.8192 13.2248 82.9131 13.2664 82.9833 13.3367C83.0536 13.4069 83.0952 13.5008 83.1 13.6Z" fill="#EBEBEB"/>
</g>
<g opacity="0.3">
<path d="M84.008 13.984C84.2179 13.984 84.388 13.8139 84.388 13.604C84.388 13.3941 84.2179 13.224 84.008 13.224C83.7982 13.224 83.628 13.3941 83.628 13.604C83.628 13.8139 83.7982 13.984 84.008 13.984Z" fill="#EBEBEB"/>
</g>
<path d="M96.684 18.356H84.008V31.032H96.684V18.356Z" fill="#E0E0E0"/>
<path d="M128.4 21.752C128.4 21.8 121.876 21.836 113.832 21.836C105.788 21.836 99.264 21.8 99.264 21.752C99.264 21.704 105.788 21.668 113.832 21.668C121.876 21.668 128.4 21.708 128.4 21.752Z" fill="#E0E0E0"/>
<path d="M128.4 24.336C128.4 24.38 121.876 24.416 113.832 24.416C105.788 24.416 99.264 24.38 99.264 24.336C99.264 24.292 105.788 24.252 113.832 24.252C121.876 24.252 128.4 24.288 128.4 24.336Z" fill="#E0E0E0"/>
<path d="M118 26.916C117.936 26.9256 117.872 26.9256 117.808 26.916H117.264L115.264 26.944L108.636 26.968L102 26.976L100 26.948H99.452C99.3883 26.9572 99.3237 26.9572 99.26 26.948C99.3238 26.9414 99.3882 26.9414 99.452 26.948H100L102 26.924L108.632 26.896L115.26 26.924L117.26 26.948H117.804C117.868 26.93 117.934 26.9192 118 26.916Z" fill="#E0E0E0"/>
<path d="M273.6 40.464C273.685 40.3391 273.784 40.225 273.896 40.124C274.132 39.892 274.42 39.6 274.76 39.26C275.492 38.532 276.516 37.54 277.656 36.46L277.684 36.436V36.58C276.536 35.516 275.504 34.544 274.768 33.832L273.9 32.984C273.788 32.8849 273.687 32.7735 273.6 32.652C273.728 32.728 273.846 32.8193 273.952 32.924L274.864 33.724C275.624 34.408 276.672 35.364 277.82 36.428L277.9 36.504L277.82 36.576L277.796 36.6C276.656 37.688 275.616 38.664 274.856 39.36L273.952 40.184C273.844 40.288 273.726 40.3817 273.6 40.464Z" fill="#E0E0E0"/>
<path d="M264.748 32.648C264.661 32.77 264.562 32.8826 264.452 32.984L263.6 33.852C262.868 34.576 261.844 35.568 260.704 36.652L260.676 36.676V36.528C261.824 37.596 262.856 38.568 263.592 39.28L264.46 40.128C264.573 40.2258 264.674 40.3373 264.76 40.46C264.633 40.3814 264.515 40.2889 264.408 40.184L263.496 39.384C262.736 38.7 261.688 37.744 260.54 36.676L260.46 36.604L260.54 36.532L260.564 36.504C261.704 35.42 262.744 34.444 263.504 33.744L264.4 32.928C264.504 32.821 264.621 32.727 264.748 32.648Z" fill="#E0E0E0"/>
<path d="M267.024 42.304C266.972 42.284 267.9 39.672 269.1 36.468C270.3 33.264 271.312 30.68 271.364 30.7C271.416 30.72 270.484 33.332 269.288 36.536C268.092 39.74 267.076 42.324 267.024 42.304Z" fill="#E0E0E0"/>
<path d="M283.676 47.896C283.676 47.896 283.676 47.744 283.676 47.46C283.676 47.176 283.676 46.748 283.676 46.204C283.676 45.1 283.676 43.488 283.676 41.44C283.676 37.34 283.652 31.48 283.632 24.416L283.716 24.5H254.916L255.016 24.4C255.016 32.888 255.016 40.904 255.016 47.88L254.928 47.792L275.728 47.836L281.624 47.86H283.192H283.736H283.604H283.204H281.656L275.776 47.884L254.908 47.928H254.82V47.836C254.82 40.86 254.82 32.844 254.82 24.356V24.256H254.924H283.724H283.808V24.4C283.808 31.484 283.776 37.364 283.764 41.476C283.764 43.52 283.764 45.12 283.764 46.22C283.764 46.76 283.764 47.176 283.764 47.464C283.764 47.752 283.676 47.896 283.676 47.896Z" fill="#E0E0E0"/>
<path d="M283.904 27.9C283.904 27.956 277.396 28 269.372 28C261.348 28 254.844 27.956 254.844 27.9C254.844 27.844 261.348 27.8 269.372 27.8C277.396 27.8 283.904 27.844 283.904 27.9Z" fill="#E0E0E0"/>
<path d="M257.2 26.184C257.2 26.2631 257.177 26.3404 257.133 26.4062C257.089 26.472 257.026 26.5233 256.953 26.5535C256.88 26.5838 256.8 26.5917 256.722 26.5763C256.644 26.5609 256.573 26.5228 256.517 26.4668C256.461 26.4109 256.423 26.3396 256.408 26.262C256.392 26.1844 256.4 26.104 256.43 26.0309C256.461 25.9578 256.512 25.8954 256.578 25.8514C256.644 25.8075 256.721 25.784 256.8 25.784C256.906 25.784 257.008 25.8261 257.083 25.9012C257.158 25.9762 257.2 26.0779 257.2 26.184Z" fill="#E0E0E0"/>
<path d="M258.624 26.184C258.624 26.2631 258.601 26.3404 258.557 26.4062C258.513 26.472 258.45 26.5233 258.377 26.5535C258.304 26.5838 258.224 26.5917 258.146 26.5763C258.068 26.5609 257.997 26.5228 257.941 26.4668C257.885 26.4109 257.847 26.3396 257.832 26.262C257.816 26.1844 257.824 26.104 257.854 26.0309C257.885 25.9578 257.936 25.8954 258.002 25.8514C258.068 25.8075 258.145 25.784 258.224 25.784C258.33 25.784 258.432 25.8261 258.507 25.9012C258.582 25.9762 258.624 26.0779 258.624 26.184Z" fill="#E0E0E0"/>
<path d="M260.036 26.184C260.036 26.2631 260.013 26.3404 259.969 26.4062C259.925 26.472 259.862 26.5233 259.789 26.5535C259.716 26.5838 259.636 26.5917 259.558 26.5763C259.48 26.5609 259.409 26.5228 259.353 26.4668C259.297 26.4109 259.259 26.3396 259.244 26.262C259.228 26.1844 259.236 26.104 259.266 26.0309C259.297 25.9578 259.348 25.8954 259.414 25.8514C259.48 25.8075 259.557 25.784 259.636 25.784C259.742 25.784 259.844 25.8261 259.919 25.9012C259.994 25.9762 260.036 26.0779 260.036 26.184Z" fill="#E0E0E0"/>
<path d="M277.036 151.16C278.7 150.3 280.664 150.188 282.512 150.496C283.504 150.66 284.54 150.956 285.216 151.696C285.892 152.436 286.016 153.752 285.244 154.396C284.743 154.732 284.141 154.885 283.54 154.828C282.092 154.828 280.484 154.556 279.328 155.428C278.668 155.924 278.232 156.748 277.44 156.992C277.045 157.084 276.632 157.044 276.261 156.88C275.891 156.715 275.584 156.434 275.388 156.08C275.013 155.354 274.93 154.513 275.156 153.728C275.252 153.184 275.471 152.67 275.797 152.225C276.123 151.78 276.547 151.415 277.036 151.16Z" fill="#EBEBEB"/>
<path d="M273.22 143.796C274.24 145.248 276.22 144.768 277.136 143.88C278.052 142.992 278.44 141.704 278.796 140.48C279.596 137.68 280.396 134.736 279.816 131.88C279.67 131.014 279.29 130.205 278.716 129.54C278.427 129.211 278.056 128.963 277.641 128.823C277.226 128.682 276.782 128.654 276.352 128.74C275.352 129.004 274.752 129.98 274.284 130.908C272.964 133.654 272.272 136.661 272.26 139.708C272.26 141.124 272.42 142.608 273.22 143.78" fill="#EBEBEB"/>
<path d="M270.424 145.88C271.528 144.568 271.74 142.656 271.248 141.012C270.69 139.379 269.692 137.931 268.364 136.828C266.857 135.487 265.103 134.451 263.2 133.78C262.463 133.482 261.67 133.345 260.876 133.38C260.477 133.406 260.091 133.528 259.751 133.738C259.411 133.947 259.127 134.236 258.924 134.58C258.384 135.616 258.924 136.876 259.468 137.9C260.462 139.709 261.596 141.437 262.86 143.068C263.876 144.376 265.04 145.672 266.592 146.268C268.144 146.864 269.752 146.792 270.572 145.716" fill="#EBEBEB"/>
<path d="M273.152 165.736C273.205 165.518 273.236 165.296 273.244 165.072C273.292 164.592 273.348 163.988 273.42 163.268C273.492 162.548 273.616 161.608 273.82 160.624C274.058 159.559 274.38 158.514 274.784 157.5C275.181 156.488 275.72 155.537 276.384 154.676C276.92 153.977 277.602 153.405 278.384 153C278.919 152.736 279.493 152.557 280.084 152.472C280.305 152.464 280.525 152.432 280.74 152.376C280.518 152.354 280.294 152.354 280.072 152.376C279.458 152.421 278.858 152.577 278.3 152.836C277.472 153.228 276.745 153.805 276.176 154.524C275.485 155.398 274.927 156.37 274.52 157.408C274.112 158.436 273.793 159.497 273.568 160.58C273.397 161.465 273.279 162.36 273.216 163.26C273.16 164.028 273.136 164.648 273.124 165.076C273.109 165.296 273.119 165.518 273.152 165.736Z" fill="#E0E0E0"/>
<path d="M273.276 164.348C273.288 164.246 273.288 164.142 273.276 164.04V163.164C273.276 162.4 273.276 161.3 273.316 159.94C273.38 157.22 273.616 154.292 274.068 150.168C274.496 146.288 275.072 141.768 275.668 138.832C275.796 138.164 275.928 137.564 276.068 137.04C276.208 136.516 276.284 136.056 276.38 135.688C276.476 135.32 276.532 135.06 276.588 134.836C276.617 134.737 276.635 134.635 276.64 134.532C276.596 134.625 276.56 134.721 276.532 134.82C276.468 135.039 276.384 135.319 276.28 135.66C276.168 136.028 276.052 136.46 275.92 137.004C275.788 137.548 275.636 138.128 275.492 138.792C274.741 142.265 274.176 145.775 273.8 149.308C273.348 153.444 273.144 157.212 273.124 159.936C273.124 161.3 273.124 162.404 273.172 163.164C273.196 163.52 273.212 163.812 273.228 164.04C273.234 164.144 273.25 164.247 273.276 164.348Z" fill="#E0E0E0"/>
<path d="M273.296 157.084C273.316 156.779 273.316 156.473 273.296 156.168C273.264 155.58 273.18 154.728 273.016 153.688C272.816 152.474 272.549 151.272 272.216 150.088C271.822 148.625 271.317 147.194 270.704 145.808C269.653 143.254 268.149 140.911 266.264 138.892C265.937 138.547 265.588 138.224 265.22 137.924C265.06 137.788 264.916 137.652 264.772 137.544L264.372 137.264C264.128 137.08 263.87 136.915 263.6 136.772C264.488 137.471 265.333 138.225 266.128 139.028C267.953 141.061 269.417 143.39 270.456 145.916C271.058 147.294 271.567 148.71 271.98 150.156C272.314 151.329 272.588 152.519 272.8 153.72C272.992 154.752 273.1 155.592 273.168 156.176C273.185 156.482 273.228 156.785 273.296 157.084Z" fill="#E0E0E0"/>
<path d="M266.276 169.896L267.004 179.864H279.812L280.54 169.896H266.276Z" fill="#E0E0E0"/>
<path d="M282.064 165.964H265.036V169.892H282.064V165.964Z" fill="#E0E0E0"/>
<path d="M265.036 179.484V180.572H265.836H281.784V179.484H265.036Z" fill="#EBEBEB"/>
<path d="M266.62 182.492L265.836 180.572H281.176L280.26 182.492H266.62Z" fill="#E0E0E0"/>
<path d="M280.3 173.152C280.3 173.152 280.3 173.188 280.24 173.244L280.048 173.5L279.304 174.452L279.272 174.496L279.236 174.452C278.768 173.804 278.144 172.936 277.404 171.916H277.512L275.704 174.472L275.648 174.552L275.584 174.476L273.444 171.932H273.568L273.452 172.08L271.536 174.48L271.472 174.56L271.416 174.476C270.764 173.556 270.156 172.7 269.608 171.92H269.712L267.492 174.452L267.452 174.496L267.42 174.448L266.724 173.276L266.544 172.964C266.523 172.93 266.505 172.894 266.492 172.856C266.492 172.856 266.52 172.884 266.564 172.952L266.764 173.252L267.496 174.4H267.424L269.612 171.836L269.668 171.772L269.716 171.84L271.54 174.384H271.416L273.328 171.984L273.444 171.836L273.504 171.76L273.568 171.836L275.7 174.388H275.6L277.424 171.844L277.48 171.772L277.532 171.844L279.324 174.408H279.26L280.036 173.476L280.244 173.236C280.26 173.206 280.278 173.178 280.3 173.152Z" fill="#F5F5F5"/>
<path d="M280.716 169.828C280.716 169.872 277.516 169.908 273.548 169.908C269.58 169.908 266.38 169.872 266.38 169.828C266.38 169.784 269.58 169.748 273.548 169.748C277.516 169.748 280.716 169.784 280.716 169.828Z" fill="#F5F5F5"/>
<path d="M281.364 180.68C281.364 180.724 277.876 180.76 273.576 180.76C269.276 180.76 265.784 180.724 265.784 180.68C265.784 180.636 269.272 180.6 273.576 180.6C277.88 180.6 281.364 180.636 281.364 180.68Z" fill="#F5F5F5"/>
<path d="M43.656 41.636H248C248.715 41.636 249.401 41.92 249.906 42.4256C250.412 42.9312 250.696 43.617 250.696 44.332V174.8C250.696 176.346 250.082 177.828 248.989 178.921C247.896 180.014 246.414 180.628 244.868 180.628H46.4C45.6333 180.63 44.8737 180.481 44.1648 180.189C43.4559 179.897 42.8115 179.468 42.2686 178.927C41.7258 178.385 41.295 177.742 41.0012 177.034C40.7073 176.326 40.556 175.567 40.556 174.8V44.74C40.5555 44.3326 40.6353 43.929 40.7908 43.5524C40.9464 43.1759 41.1746 42.8337 41.4626 42.5454C41.7505 42.2571 42.0924 42.0284 42.4688 41.8723C42.8451 41.7163 43.2486 41.636 43.656 41.636Z" fill="#455A64"/>
<path d="M31.768 170.332H259.452V177C259.452 178.455 258.874 179.851 257.845 180.881C256.815 181.91 255.42 182.488 253.964 182.488H37.256C35.8005 182.488 34.4046 181.91 33.3754 180.881C32.3462 179.851 31.768 178.455 31.768 177V170.332Z" fill="#455A64"/>
<path d="M244.476 47.16H46.196V164.52H244.476V47.16Z" fill="#E0E0E0"/>
<path d="M124.916 170.332L127.74 174.824H167.496L170.12 170.332H124.916Z" fill="#263238"/>
<path d="M239.072 53.96H52.08V164.52H239.072V53.96Z" fill="#263238"/>
<path d="M66.428 161.272C66.332 161.272 66.252 137.728 66.252 108.688C66.252 79.648 66.332 56.092 66.428 56.092C66.524 56.092 66.604 79.636 66.604 108.688C66.604 137.74 66.524 161.272 66.428 161.272Z" fill="#E0E0E0"/>
<path d="M62.656 65.628C62.656 65.724 61.296 65.804 59.62 65.804C57.944 65.804 56.58 65.724 56.58 65.628C56.58 65.532 57.94 65.452 59.62 65.452C61.3 65.452 62.656 65.532 62.656 65.628Z" fill="#E0E0E0"/>
<path d="M62.888 59.66C62.888 59.756 61.528 59.836 59.852 59.836C58.176 59.836 56.816 59.756 56.816 59.66C56.816 59.564 58.176 59.484 59.852 59.484C61.528 59.484 62.888 59.564 62.888 59.66Z" fill="#E0E0E0"/>
<path d="M62.656 72.06C62.656 72.156 61.296 72.236 59.62 72.236C57.944 72.236 56.58 72.156 56.58 72.06C56.58 71.964 57.94 71.884 59.62 71.884C61.3 71.884 62.656 71.964 62.656 72.06Z" fill="#E0E0E0"/>
<path d="M62.656 78.492C62.656 78.592 61.296 78.668 59.62 78.668C57.944 78.668 56.58 78.592 56.58 78.492C56.58 78.392 57.94 78.32 59.62 78.32C61.3 78.32 62.656 78.4 62.656 78.492Z" fill="#E0E0E0"/>
<path d="M62.656 84.928C62.656 85.024 61.296 85.104 59.62 85.104C57.944 85.104 56.58 85.024 56.58 84.928C56.58 84.832 57.94 84.752 59.62 84.752C61.3 84.752 62.656 84.828 62.656 84.928Z" fill="#E0E0E0"/>
<path d="M62.656 91.36C62.656 91.456 61.296 91.536 59.62 91.536C57.944 91.536 56.58 91.456 56.58 91.36C56.58 91.264 57.94 91.184 59.62 91.184C61.3 91.184 62.656 91.264 62.656 91.36Z" fill="#E0E0E0"/>
<path d="M62.656 97.792C62.656 97.888 61.296 97.968 59.62 97.968C57.944 97.968 56.58 97.888 56.58 97.792C56.58 97.696 57.94 97.616 59.62 97.616C61.3 97.616 62.656 97.696 62.656 97.792Z" fill="#E0E0E0"/>
<path d="M62.656 104.224C62.656 104.324 61.296 104.4 59.62 104.4C57.944 104.4 56.58 104.324 56.58 104.224C56.58 104.124 57.94 104.052 59.62 104.052C61.3 104.052 62.656 104.128 62.656 104.224Z" fill="#E0E0E0"/>
<path d="M62.656 110.66C62.656 110.756 61.296 110.832 59.62 110.832C57.944 110.832 56.58 110.756 56.58 110.66C56.58 110.564 57.94 110.484 59.62 110.484C61.3 110.484 62.656 110.56 62.656 110.66Z" fill="#E0E0E0"/>
<path d="M62.656 117.092C62.656 117.188 61.296 117.268 59.62 117.268C57.944 117.268 56.58 117.188 56.58 117.092C56.58 116.996 57.94 116.916 59.62 116.916C61.3 116.916 62.656 116.996 62.656 117.092Z" fill="#E0E0E0"/>
<path d="M62.656 123.524C62.656 123.62 61.296 123.7 59.62 123.7C57.944 123.7 56.58 123.62 56.58 123.524C56.58 123.428 57.94 123.348 59.62 123.348C61.3 123.348 62.656 123.428 62.656 123.524Z" fill="#E0E0E0"/>
<path d="M62.656 129.956C62.656 130.056 61.296 130.132 59.62 130.132C57.944 130.132 56.58 130.056 56.58 129.956C56.58 129.856 57.94 129.784 59.62 129.784C61.3 129.784 62.656 129.86 62.656 129.956Z" fill="#E0E0E0"/>
<path d="M62.656 136.4C62.656 136.496 61.296 136.572 59.62 136.572C57.944 136.572 56.58 136.496 56.58 136.4C56.58 136.304 57.94 136.224 59.62 136.224C61.3 136.224 62.656 136.292 62.656 136.4Z" fill="#E0E0E0"/>
<path d="M62.656 142.824C62.656 142.92 61.296 143 59.62 143C57.944 143 56.58 142.92 56.58 142.824C56.58 142.728 57.94 142.648 59.62 142.648C61.3 142.648 62.656 142.728 62.656 142.824Z" fill="#E0E0E0"/>
<path d="M62.656 149.256C62.656 149.352 61.296 149.432 59.62 149.432C57.944 149.432 56.58 149.352 56.58 149.256C56.58 149.16 57.94 149.08 59.62 149.08C61.3 149.08 62.656 149.16 62.656 149.256Z" fill="#E0E0E0"/>
<path d="M62.656 155.688C62.656 155.788 61.296 155.864 59.62 155.864C57.944 155.864 56.58 155.788 56.58 155.688C56.58 155.588 57.94 155.512 59.62 155.512C61.3 155.512 62.656 155.6 62.656 155.688Z" fill="#E0E0E0"/>
<path d="M87.004 65.248C87.004 65.344 83.476 65.424 79.124 65.424C74.772 65.424 71.24 65.344 71.24 65.248C71.24 65.152 74.768 65.072 79.124 65.072C83.48 65.072 87.004 65.152 87.004 65.248Z" fill="#B0BEC5"/>
<path d="M87.004 155.688C87.004 155.788 83.476 155.864 79.124 155.864C74.772 155.864 71.24 155.788 71.24 155.688C71.24 155.588 74.768 155.512 79.124 155.512C83.48 155.512 87.004 155.6 87.004 155.688Z" fill="#B0BEC5"/>
<path d="M108.96 78.492C108.96 78.592 102.356 78.668 94.212 78.668C86.068 78.668 79.464 78.592 79.464 78.492C79.464 78.392 86.064 78.32 94.212 78.32C102.36 78.32 108.96 78.4 108.96 78.492Z" fill="#B0BEC5"/>
<path d="M143.072 78.492C143.072 78.592 136.468 78.668 128.324 78.668C120.18 78.668 113.572 78.592 113.572 78.492C113.572 78.392 120.176 78.32 128.324 78.32C136.472 78.32 143.072 78.4 143.072 78.492Z" fill="#E0E0E0"/>
<path d="M130.036 84.928C130.036 85.024 120.304 85.104 108.3 85.104C96.296 85.104 86.564 85.024 86.564 84.928C86.564 84.832 96.292 84.752 108.3 84.752C120.308 84.752 130.036 84.828 130.036 84.928Z" fill="#E0E0E0"/>
<path d="M130.036 91.36C130.036 91.456 120.304 91.536 108.3 91.536C96.296 91.536 86.564 91.456 86.564 91.36C86.564 91.264 96.292 91.184 108.3 91.184C120.308 91.184 130.036 91.264 130.036 91.36Z" fill="#E0E0E0"/>
<path d="M159.96 110.66C159.96 110.756 150.224 110.832 138.224 110.832C126.224 110.832 116.484 110.756 116.484 110.66C116.484 110.564 126.216 110.484 138.224 110.484C150.232 110.484 159.96 110.56 159.96 110.66Z" fill="#E0E0E0"/>
<path d="M147.044 97.792C147.044 97.888 137.312 97.968 125.312 97.968C113.312 97.968 103.572 97.888 103.572 97.792C103.572 97.696 113.304 97.616 125.312 97.616C137.32 97.616 147.044 97.696 147.044 97.792Z" fill="#E0E0E0"/>
<path d="M200.168 97.792C200.168 97.888 190.436 97.968 178.436 97.968C166.436 97.968 156.696 97.888 156.696 97.792C156.696 97.696 166.428 97.616 178.436 97.616C190.444 97.616 200.168 97.696 200.168 97.792Z" fill="#E0E0E0"/>
<path d="M181.696 84.928C181.696 85.024 171.96 85.104 159.96 85.104C147.96 85.104 138.224 85.024 138.224 84.928C138.224 84.832 147.952 84.752 159.96 84.752C171.968 84.752 181.696 84.828 181.696 84.928Z" fill="#FAFAFA"/>
<path d="M211.724 110.66C211.724 110.756 201.992 110.832 189.988 110.832C177.984 110.832 168.252 110.756 168.252 110.66C168.252 110.564 177.98 110.484 189.988 110.484C201.996 110.484 211.724 110.56 211.724 110.66Z" fill="#FAFAFA"/>
<path d="M205.728 91.36C205.728 91.456 190.616 91.536 171.976 91.536C153.336 91.536 138.224 91.456 138.224 91.36C138.224 91.264 153.332 91.184 171.976 91.184C190.62 91.184 205.728 91.264 205.728 91.36Z" fill="#455A64"/>
<path d="M87.004 72.06C87.004 72.156 83.476 72.236 79.124 72.236C74.772 72.236 71.24 72.156 71.24 72.06C71.24 71.964 74.768 71.884 79.124 71.884C83.48 71.884 87.004 71.964 87.004 72.06Z" fill="#FAFAFA"/>
<path d="M87.004 149.256C87.004 149.352 83.476 149.432 79.124 149.432C74.772 149.432 71.24 149.352 71.24 149.256C71.24 149.16 74.768 149.08 79.124 149.08C83.48 149.08 87.004 149.16 87.004 149.256Z" fill="#FAFAFA"/>
<path d="M94.8 97.792C94.8 97.888 91.272 97.968 86.916 97.968C82.56 97.968 79.032 97.888 79.032 97.792C79.032 97.696 82.564 97.616 86.916 97.616C91.268 97.616 94.8 97.696 94.8 97.792Z" fill="#FAFAFA"/>
<path d="M221.172 97.792C221.172 97.888 217.644 97.968 213.292 97.968C208.94 97.968 205.408 97.888 205.408 97.792C205.408 97.696 208.936 97.616 213.292 97.616C217.648 97.616 221.172 97.696 221.172 97.792Z" fill="#B0BEC5"/>
<path d="M108.96 123.488C108.96 123.584 102.356 123.664 94.212 123.664C86.068 123.664 79.464 123.584 79.464 123.488C79.464 123.392 86.064 123.312 94.212 123.312C102.36 123.312 108.96 123.388 108.96 123.488Z" fill="#B0BEC5"/>
<path d="M143.072 123.488C143.072 123.584 136.468 123.664 128.324 123.664C120.18 123.664 113.572 123.584 113.572 123.488C113.572 123.392 120.176 123.312 128.324 123.312C136.472 123.312 143.072 123.388 143.072 123.488Z" fill="#E0E0E0"/>
<path d="M130.036 129.92C130.036 130.016 120.304 130.096 108.3 130.096C96.296 130.096 86.564 130.016 86.564 129.92C86.564 129.824 96.292 129.744 108.3 129.744C120.308 129.744 130.036 129.824 130.036 129.92Z" fill="#E0E0E0"/>
<path d="M130.036 136.352C130.036 136.448 120.304 136.528 108.3 136.528C96.296 136.528 86.564 136.448 86.564 136.352C86.564 136.256 96.292 136.176 108.3 136.176C120.308 136.176 130.036 136.256 130.036 136.352Z" fill="#E0E0E0"/>
<path d="M147.044 142.8C147.044 142.9 137.312 142.976 125.312 142.976C113.312 142.976 103.572 142.9 103.572 142.8C103.572 142.7 113.304 142.628 125.312 142.628C137.32 142.628 147.044 142.688 147.044 142.8Z" fill="#E0E0E0"/>
<path d="M200.168 142.8C200.168 142.9 190.436 142.976 178.436 142.976C166.436 142.976 156.696 142.9 156.696 142.8C156.696 142.7 166.428 142.628 178.436 142.628C190.444 142.628 200.168 142.688 200.168 142.8Z" fill="#E0E0E0"/>
<path d="M181.696 129.92C181.696 130.016 171.96 130.096 159.96 130.096C147.96 130.096 138.224 130.016 138.224 129.92C138.224 129.824 147.952 129.744 159.96 129.744C171.968 129.744 181.696 129.824 181.696 129.92Z" fill="#FAFAFA"/>
<path d="M205.728 136.352C205.728 136.448 190.616 136.528 171.976 136.528C153.336 136.528 138.224 136.448 138.224 136.352C138.224 136.256 153.332 136.176 171.976 136.176C190.62 136.176 205.728 136.256 205.728 136.352Z" fill="#455A64"/>
<path d="M94.8 142.8C94.8 142.9 91.272 142.976 86.916 142.976C82.56 142.976 79.032 142.9 79.032 142.8C79.032 142.7 82.564 142.628 86.916 142.628C91.268 142.628 94.8 142.688 94.8 142.8Z" fill="#FAFAFA"/>
<path d="M221.172 142.8C221.172 142.9 217.644 142.976 213.292 142.976C208.94 142.976 205.408 142.9 205.408 142.8C205.408 142.7 208.936 142.628 213.292 142.628C217.648 142.628 221.172 142.688 221.172 142.8Z" fill="#B0BEC5"/>
<path d="M225.376 174.4C225.376 174.456 185.12 174.504 135.472 174.504C85.824 174.504 45.56 174.448 45.56 174.4C45.56 174.352 85.808 174.296 135.472 174.296C185.136 174.296 225.376 174.336 225.376 174.4Z" fill="#263238"/>
<path d="M38.828 139.132C36.0283 136.331 32.5482 134.308 28.7295 133.259C24.9109 132.211 20.8852 132.174 17.048 133.152C23.5493 137.582 31.2212 139.978 39.088 140.036" fill="#B0BEC5"/>
<path d="M31.44 112.972C32.348 106.552 29.84 99.332 25.04 94.668C24.884 101.028 27.568 108.184 31.44 112.972Z" fill="#B0BEC5"/>
<path d="M35.284 125.096C31.813 118.503 26.2871 113.221 19.544 110.052C20.598 113.747 22.6174 117.095 25.3943 119.751C28.1712 122.407 31.6055 124.275 35.344 125.164" fill="#B0BEC5"/>
<path d="M36.08 127.432C32.204 127.544 28.28 127.408 24.532 126.416C20.784 125.424 17.2 123.516 14.696 120.548C22.2896 120.571 29.7074 122.835 36.02 127.056" fill="#B0BEC5"/>
<path d="M34.112 119.728C36.08 112.352 39.312 107.252 45.124 103.12C45.5682 106.746 44.703 110.412 42.684 113.457C40.6651 116.502 37.6252 118.726 34.112 119.728Z" fill="#B0BEC5"/>
<path d="M48.744 132.448C48.7587 130.296 48.1369 128.189 46.9569 126.389C45.7768 124.59 44.0913 123.18 42.112 122.336C42.436 126.144 45.428 130.548 48.744 132.448Z" fill="#B0BEC5"/>
<path d="M50.596 126.228C50.8662 123.14 52.0127 120.194 53.9004 117.736C55.7882 115.278 58.3387 113.41 61.252 112.352C59.912 118.516 56.352 123.648 50.596 126.228Z" fill="#B0BEC5"/>
<path d="M47.804 137.264C49.172 135.308 51.404 134.092 53.712 133.488C56.02 132.884 58.432 132.828 60.816 132.78C59.1918 134.543 57.2053 135.933 54.9931 136.855C52.7809 137.778 50.3953 138.211 48 138.124" fill="#B0BEC5"/>
<path d="M45.036 152.98C49.3864 151.638 54.0819 151.975 58.196 153.924C62.3102 155.874 65.5442 159.295 67.26 163.512C59.2 162 51.22 158.4 45.036 152.98Z" fill="#B0BEC5"/>
<path d="M36.176 147.52C37.516 151.484 37.256 156.276 34.276 159.692C33.6821 157.648 33.5444 155.498 33.8728 153.395C34.2011 151.291 34.9873 149.286 36.176 147.52Z" fill="#B0BEC5"/>
<path d="M30.936 145.316C30.7199 147.871 29.8484 150.328 28.4057 152.448C26.9629 154.569 24.9978 156.281 22.7 157.42C22.5931 157.488 22.4735 157.534 22.3483 157.555C22.2232 157.575 22.0951 157.57 21.972 157.54C21.608 157.392 21.572 156.896 21.62 156.504C22.204 151.428 25.968 146.504 30.936 145.304" fill="#B0BEC5"/>
<path d="M27.516 144.8C26.378 146.029 24.9996 147.012 23.4663 147.687C21.9329 148.362 20.2772 148.714 18.602 148.723C16.9267 148.732 15.2675 148.396 13.7272 147.737C12.187 147.078 10.7986 146.11 9.64799 144.892C15.328 144.272 21.88 143.856 27.516 144.8Z" fill="#B0BEC5"/>
<path d="M26.664 99.396C26.664 99.396 26.664 99.456 26.716 99.564L26.892 100.044C27.052 100.476 27.292 101.092 27.576 101.884C27.86 102.676 28.236 103.66 28.644 104.8L29.3 106.624L30 108.676C31.008 111.552 32.124 115.004 33.332 118.848C34.54 122.692 35.76 126.948 36.984 131.436C38.208 135.924 39.26 140.236 40.184 144.148C41.108 148.06 41.832 151.624 42.38 154.624C42.5213 155.373 42.6547 156.085 42.78 156.76C42.9053 157.435 43.0133 158.071 43.104 158.668C43.308 159.868 43.484 160.888 43.604 161.732C43.724 162.576 43.832 163.216 43.9 163.672C43.9373 163.883 43.9653 164.051 43.984 164.176C43.9913 164.234 44.0034 164.292 44.02 164.348C44.0253 164.289 44.0253 164.231 44.02 164.172C44.02 164.048 43.984 163.88 43.956 163.668C43.896 163.212 43.812 162.556 43.7 161.72C43.588 160.884 43.432 159.844 43.236 158.648C43.14 158.052 43.036 157.412 42.928 156.736C42.82 156.06 42.676 155.344 42.528 154.596C41.996 151.592 41.252 148.04 40.376 144.104C39.5 140.168 38.4 135.872 37.2 131.376C36 126.88 34.728 122.64 33.532 118.8C32.336 114.96 31.18 111.508 30.156 108.64C29.8893 107.92 29.648 107.236 29.432 106.588L28.756 104.768C28.356 103.632 27.956 102.656 27.656 101.864C27.356 101.072 27.1 100.468 26.932 100.04C26.848 99.84 26.784 99.684 26.74 99.568C26.7192 99.5088 26.6938 99.4513 26.664 99.396Z" fill="#263238"/>
<path d="M57.864 115.644C57.864 115.644 57.828 115.672 57.764 115.736L57.492 116.02C57.256 116.272 56.912 116.652 56.484 117.152C55.2658 118.554 54.1484 120.04 53.14 121.6C51.6343 123.921 50.4578 126.44 49.644 129.084C48.704 132.06 48.124 135.444 47.544 138.984C46.392 146.064 44.972 152.408 43.944 156.984C43.428 159.268 43.008 161.12 42.712 162.416C42.572 163.044 42.464 163.54 42.388 163.892C42.352 164.052 42.328 164.18 42.308 164.292C42.301 164.336 42.301 164.38 42.308 164.424C42.308 164.424 42.308 164.38 42.348 164.296C42.388 164.212 42.408 164.072 42.448 163.916L42.816 162.448C43.124 161.152 43.568 159.308 44.112 157.028C45.176 152.448 46.62 146.108 47.776 139.028C48.356 135.488 48.928 132.112 49.848 129.148C50.6494 126.518 51.8054 124.01 53.284 121.692C54.2807 120.128 55.3762 118.629 56.564 117.204C56.964 116.7 57.316 116.312 57.54 116.052L57.796 115.752L57.864 115.644Z" fill="#263238"/>
<path d="M25.82 144.56C25.8858 144.582 25.9546 144.594 26.024 144.596L26.612 144.664L27.036 144.704L27.54 144.78C27.9 144.832 28.312 144.888 28.74 144.984L29.448 145.128L30.204 145.316C30.728 145.436 31.272 145.628 31.852 145.804C33.0929 146.24 34.2968 146.775 35.452 147.404C36.5959 148.046 37.6755 148.796 38.676 149.644C39.1101 150.021 39.5228 150.421 39.912 150.844C40.2598 151.201 40.587 151.578 40.892 151.972C41.1507 152.292 41.3923 152.626 41.616 152.972C41.7994 153.227 41.9651 153.494 42.112 153.772L42.412 154.28C42.484 154.396 42.524 154.456 42.532 154.452C42.5158 154.385 42.4888 154.322 42.452 154.264L42.184 153.732C42.0482 153.454 41.8918 153.187 41.716 152.932C41.5016 152.577 41.2665 152.235 41.012 151.908C40.7142 151.501 40.3909 151.114 40.044 150.748C39.6535 150.326 39.2409 149.926 38.808 149.548C37.8102 148.658 36.7246 147.871 35.568 147.2C34.4027 146.563 33.1849 146.028 31.928 145.6C31.344 145.432 30.796 145.244 30.264 145.132L29.5 144.952L28.8 144.836C28.348 144.744 27.932 144.7 27.568 144.66L27.064 144.6L26.636 144.58L26.044 144.556C25.9695 144.546 25.894 144.548 25.82 144.56Z" fill="#263238"/>
<path d="M24.2 115.78C24.3191 115.927 24.4532 116.061 24.6 116.18L25.78 117.2C26.772 118.048 28.156 119.2 29.688 120.484C31.22 121.768 32.624 122.884 33.64 123.716L34.84 124.68C34.9848 124.803 35.14 124.912 35.304 125.008C35.1839 124.862 35.05 124.728 34.904 124.608L33.736 123.6C32.744 122.752 31.364 121.6 29.828 120.32C28.292 119.04 26.896 117.92 25.88 117.088L24.68 116.124C24.5327 115.993 24.3718 115.877 24.2 115.78Z" fill="#263238"/>
<path d="M22.8 123.292C22.8 123.352 25.768 124.28 29.46 125.372C33.152 126.464 36.168 127.304 36.184 127.248C36.2 127.192 33.22 126.256 29.524 125.164C25.828 124.072 22.824 123.236 22.8 123.292Z" fill="#263238"/>
<path d="M33.816 120.3C33.9346 120.17 34.038 120.026 34.124 119.872L34.924 118.672C35.588 117.664 36.524 116.272 37.656 114.82C38.788 113.368 39.856 112.08 40.648 111.168L41.592 110.092C41.7171 109.971 41.8284 109.837 41.924 109.692C41.778 109.794 41.6438 109.912 41.524 110.044C41.28 110.284 40.94 110.636 40.528 111.08C39.7 111.964 38.6 113.232 37.476 114.7C36.352 116.168 35.42 117.568 34.784 118.6C34.468 119.116 34.22 119.54 34.056 119.836C33.9619 119.983 33.8815 120.138 33.816 120.3Z" fill="#263238"/>
<path d="M44.172 124.472C44.3808 124.87 44.6146 125.255 44.872 125.624C45.32 126.324 45.924 127.296 46.548 128.396C47.172 129.496 47.704 130.512 48.076 131.256C48.2602 131.669 48.4713 132.07 48.708 132.456C48.5857 132.022 48.4209 131.601 48.216 131.2C47.876 130.44 47.368 129.408 46.736 128.3C46.104 127.192 45.48 126.228 45 125.548C44.7591 125.164 44.4818 124.803 44.172 124.472Z" fill="#263238"/>
<path d="M47.716 137.468C47.716 137.496 48.3 137.22 49.232 136.8C50.164 136.38 51.464 135.832 52.932 135.32C54.4 134.808 55.76 134.42 56.752 134.168C57.744 133.916 58.352 133.768 58.352 133.748C58.2027 133.742 58.0532 133.757 57.908 133.792C57.624 133.836 57.216 133.912 56.708 134.02C54.0946 134.592 51.5601 135.478 49.16 136.66C48.7 136.888 48.332 137.084 48.084 137.228C47.9516 137.292 47.8279 137.373 47.716 137.468Z" fill="#263238"/>
<path d="M44.928 153.004C44.928 153.004 44.988 153.036 45.112 153.068L45.648 153.204L47.648 153.664C49.8346 154.122 51.9961 154.692 54.124 155.372C56.2424 156.08 58.2708 157.033 60.168 158.212C60.892 158.672 61.456 159.08 61.836 159.372C62.0273 159.531 62.2276 159.68 62.436 159.816C62.436 159.816 62.392 159.76 62.3 159.672C62.208 159.584 62.072 159.456 61.9 159.304C61.3782 158.867 60.832 158.459 60.264 158.084C58.3776 156.858 56.3425 155.878 54.208 155.168C52.0724 154.481 49.8962 153.928 47.692 153.512L45.692 153.112C45.4399 153.06 45.1847 153.024 44.928 153.004Z" fill="#263238"/>
<path d="M34.84 156.836C34.9 156.836 35.24 154.752 35.64 152.164C36.04 149.576 36.28 147.468 36.22 147.46C36.16 147.452 35.82 149.544 35.42 152.132C35.02 154.72 34.8 156.828 34.84 156.836Z" fill="#263238"/>
<path d="M24.336 153.024C24.6765 152.671 24.9932 152.295 25.284 151.9C25.852 151.192 26.636 150.22 27.528 149.16C28.42 148.1 29.24 147.16 29.84 146.48C30.1836 146.125 30.5042 145.748 30.8 145.352C30.6875 145.425 30.5852 145.512 30.496 145.612C30.312 145.784 30.056 146.048 29.74 146.376C29.112 147.032 28.268 147.976 27.376 149.02C26.484 150.064 25.716 151.072 25.18 151.82C24.908 152.188 24.696 152.488 24.556 152.696C24.4681 152.795 24.3941 152.905 24.336 153.024Z" fill="#263238"/>
<path d="M52.132 162.764V167.952H50.832L46.22 182.512H35.992L31.524 168.096L29.792 167.952V162.764H52.132Z" fill="#B0BEC5"/>
<g opacity="0.3">
<path d="M52.132 162.764V167.952H50.832L46.22 182.512H35.992L31.524 168.096L29.792 167.952V162.764H52.132Z" fill="black"/>
</g>
<path d="M30.656 168.096C30.656 168.156 35.176 168.204 40.744 168.204C46.312 168.204 50.832 168.156 50.832 168.096C50.832 168.036 46.316 167.988 40.744 167.988C35.172 167.988 30.656 168.036 30.656 168.096Z" fill="#263238"/>
<path d="M23.3 134.716C23.5133 134.793 23.7327 134.852 23.956 134.892L25.752 135.328C27.264 135.7 29.352 136.268 31.596 137.028C33.84 137.788 35.852 138.588 37.284 139.204L38.976 139.944C39.1783 140.046 39.3882 140.131 39.604 140.2C39.4165 140.073 39.2184 139.962 39.012 139.868C38.612 139.668 38.056 139.392 37.344 139.068C35.4912 138.224 33.5968 137.475 31.668 136.824C29.7378 136.175 27.7751 135.626 25.788 135.18C25.024 135.012 24.404 134.888 23.972 134.816C23.7514 134.763 23.5265 134.729 23.3 134.716Z" fill="#263238"/>
<path d="M34.052 176.18C34.052 176.24 37.224 176.288 41.132 176.288C45.04 176.288 48.208 176.24 48.208 176.18C48.208 176.12 45.04 176.072 41.132 176.072C37.224 176.072 34.052 176.12 34.052 176.18Z" fill="#FAFAFA"/>
<path d="M33.656 174.976C33.656 175.036 37.016 175.084 41.156 175.084C45.296 175.084 48.656 175.036 48.656 174.976C48.656 174.916 45.3 174.868 41.156 174.868C37.012 174.868 33.656 174.916 33.656 174.976Z" fill="#FAFAFA"/>
<path d="M283.784 182.592C283.784 182.652 222.808 182.7 147.608 182.7C72.408 182.7 11.416 182.652 11.416 182.592C11.416 182.532 72.4 182.488 147.6 182.488C222.8 182.488 283.784 182.536 283.784 182.592Z" fill="#263238"/>
<path d="M246.416 30.452H139.22V96.836H229.46L235.048 109.688L240 96.836H246.416V30.452Z" fill="#FAFAFA"/>
<path d="M246.4 30.448C246.4 31.092 246.428 56.048 246.48 96.848V96.928H240L240.076 96.876C238.528 100.904 236.856 105.244 235.128 109.728L235.052 109.932L234.964 109.732C233.212 105.708 231.32 101.352 229.364 96.88L229.448 96.936H147.848H139.116V96.832C139.116 73.172 139.116 50.72 139.116 30.432V30.34H139.212L246.412 30.432L139.212 30.528L139.308 30.432C139.308 50.708 139.308 73.16 139.308 96.832L139.204 96.728H147.836H229.436H229.496L229.52 96.784L235.12 109.64H234.956L239.924 96.8L239.944 96.744H246.4L246.32 96.824C246.4 56.032 246.4 31.092 246.4 30.448Z" fill="#263238"/>
<path d="M246.36 36.928C246.36 37.008 222.408 37.076 192.872 37.076C163.336 37.076 139.38 37.008 139.38 36.928C139.38 36.848 163.328 36.8 192.872 36.8C222.416 36.8 246.36 36.848 246.36 36.928Z" fill="#263238"/>
<path d="M144.916 34C144.916 34.1742 144.864 34.3445 144.767 34.4893C144.671 34.6341 144.533 34.7469 144.372 34.8134C144.211 34.8799 144.034 34.8971 143.863 34.8628C143.692 34.8285 143.535 34.7443 143.412 34.6208C143.289 34.4974 143.206 34.3402 143.172 34.1692C143.139 33.9983 143.157 33.8212 143.224 33.6605C143.291 33.4997 143.405 33.3626 143.55 33.2664C143.695 33.1701 143.866 33.1192 144.04 33.12C144.273 33.1211 144.496 33.2142 144.66 33.3792C144.824 33.5441 144.916 33.7673 144.916 34Z" fill="#263238"/>
<path d="M148.096 34C148.096 34.1742 148.044 34.3445 147.947 34.4893C147.851 34.6341 147.713 34.7469 147.552 34.8134C147.391 34.8799 147.214 34.8971 147.043 34.8628C146.872 34.8285 146.715 34.7443 146.592 34.6208C146.469 34.4974 146.386 34.3402 146.352 34.1692C146.319 33.9983 146.337 33.8212 146.404 33.6605C146.471 33.4997 146.585 33.3626 146.73 33.2664C146.875 33.1701 147.046 33.1192 147.22 33.12C147.453 33.1211 147.676 33.2142 147.84 33.3792C148.004 33.5441 148.096 33.7673 148.096 34Z" fill="#263238"/>
<path d="M151.276 34C151.276 34.174 151.224 34.3442 151.128 34.4889C151.031 34.6336 150.894 34.7464 150.733 34.813C150.572 34.8796 150.395 34.897 150.224 34.8631C150.054 34.8291 149.897 34.7453 149.774 34.6222C149.651 34.4992 149.567 34.3424 149.533 34.1717C149.499 34.001 149.516 33.824 149.583 33.6632C149.65 33.5024 149.762 33.365 149.907 33.2683C150.052 33.1716 150.222 33.12 150.396 33.12C150.629 33.12 150.853 33.2127 151.018 33.3777C151.183 33.5428 151.276 33.7666 151.276 34Z" fill="#263238"/>
<path d="M150.912 48.8L148.368 49.784L150.912 50.764V51.36L147.712 50.092V49.48L150.912 48.208V48.8Z" fill="#263238"/>
<path d="M153.56 46.26H154.184L151.816 53.012H151.2L153.56 46.26Z" fill="#263238"/>
<path d="M157.6 49.48V50.096L154.4 51.364V50.768L156.952 49.788L154.4 48.8V48.204L157.6 49.48Z" fill="#263238"/>
<path d="M158.424 51.844C158.423 51.7796 158.435 51.7157 158.459 51.656C158.483 51.5963 158.519 51.542 158.565 51.4965C158.61 51.451 158.664 51.4151 158.724 51.3909C158.784 51.3668 158.848 51.3549 158.912 51.356C158.976 51.3554 159.039 51.3677 159.098 51.3922C159.156 51.4167 159.21 51.4528 159.254 51.4984C159.299 51.544 159.333 51.5981 159.356 51.6575C159.379 51.7169 159.39 51.7803 159.388 51.844C159.39 51.908 159.379 51.9718 159.357 52.0317C159.334 52.0915 159.299 52.1461 159.255 52.1924C159.21 52.2386 159.157 52.2755 159.098 52.3008C159.039 52.3262 158.976 52.3395 158.912 52.34C158.847 52.34 158.783 52.3271 158.723 52.3021C158.664 52.2771 158.609 52.2404 158.564 52.1942C158.519 52.1481 158.483 52.0933 158.459 52.0332C158.435 51.9731 158.423 51.9087 158.424 51.844Z" fill="#263238"/>
<path d="M160.056 51.844C160.054 51.7795 160.066 51.7153 160.09 51.6553C160.114 51.5954 160.15 51.5409 160.195 51.4953C160.241 51.4496 160.295 51.4137 160.355 51.3898C160.415 51.3658 160.479 51.3543 160.544 51.356C160.607 51.356 160.67 51.3687 160.728 51.3934C160.787 51.4181 160.839 51.4543 160.884 51.4998C160.928 51.5454 160.962 51.5993 160.985 51.6584C161.008 51.7176 161.018 51.7807 161.016 51.844C161.018 51.9077 161.008 51.9712 160.985 52.0307C160.962 52.0903 160.928 52.1448 160.884 52.1909C160.84 52.2371 160.787 52.2741 160.729 52.2997C160.671 52.3253 160.608 52.339 160.544 52.34C160.479 52.3405 160.415 52.328 160.355 52.3032C160.295 52.2784 160.24 52.2417 160.195 52.1955C160.149 52.1492 160.114 52.0942 160.09 52.0338C160.066 51.9735 160.054 51.9089 160.056 51.844Z" fill="#263238"/>
<path d="M161.684 51.844C161.682 51.7795 161.694 51.7153 161.718 51.6553C161.742 51.5954 161.778 51.5409 161.823 51.4953C161.869 51.4496 161.923 51.4137 161.983 51.3898C162.043 51.3658 162.107 51.3543 162.172 51.356C162.235 51.356 162.298 51.3687 162.356 51.3934C162.415 51.4181 162.467 51.4543 162.512 51.4998C162.556 51.5454 162.59 51.5993 162.613 51.6584C162.636 51.7176 162.646 51.7807 162.644 51.844C162.646 51.9077 162.636 51.9712 162.613 52.0307C162.59 52.0903 162.556 52.1448 162.512 52.1909C162.468 52.2371 162.415 52.2741 162.357 52.2997C162.299 52.3253 162.236 52.339 162.172 52.34C162.107 52.3405 162.043 52.328 161.983 52.3032C161.923 52.2784 161.868 52.2417 161.823 52.1955C161.777 52.1492 161.742 52.0942 161.718 52.0338C161.694 51.9735 161.682 51.9089 161.684 51.844Z" fill="#263238"/>
<path d="M218.6 58.284C218.6 58.364 202.756 58.428 183.212 58.428C163.668 58.428 147.82 58.364 147.82 58.284C147.82 58.204 163.664 58.136 183.212 58.136C202.76 58.136 218.6 58.2 218.6 58.284Z" fill="#455A64"/>
<path d="M230.16 58.492C230.16 58.572 228.64 58.64 226.76 58.64C224.88 58.64 223.36 58.572 223.36 58.492C223.36 58.412 224.884 58.344 226.76 58.344C228.636 58.344 230.16 58.4 230.16 58.492Z" fill="#263238"/>
<path d="M240.1 58.492C240.1 58.572 238.436 58.64 236.388 58.64C234.34 58.64 232.672 58.572 232.672 58.492C232.672 58.412 234.336 58.344 236.388 58.344C238.44 58.344 240.1 58.4 240.1 58.492Z" fill="#263238"/>
<path d="M192.892 64.248C192.892 64.328 182.82 64.392 170.396 64.392C157.972 64.392 147.904 64.328 147.904 64.248C147.904 64.168 157.972 64.1 170.396 64.1C182.82 64.1 192.892 64.164 192.892 64.248Z" fill="#455A64"/>
<path d="M192.568 86.5C192.568 86.58 182.496 86.644 170.076 86.644C157.656 86.644 147.58 86.58 147.58 86.5C147.58 86.42 157.652 86.352 170.076 86.352C182.5 86.352 192.568 86.42 192.568 86.5Z" fill="#455A64"/>
<path d="M209.236 64.248C209.236 64.328 206.496 64.392 203.116 64.392C199.736 64.392 196.996 64.328 196.996 64.248C196.996 64.168 199.736 64.1 203.116 64.1C206.496 64.1 209.236 64.164 209.236 64.248Z" fill="#263238"/>
<path d="M209.108 86.5C209.108 86.58 206.368 86.644 202.988 86.644C199.608 86.644 196.868 86.58 196.868 86.5C196.868 86.42 199.608 86.352 202.988 86.352C206.368 86.352 209.108 86.42 209.108 86.5Z" fill="#263238"/>
<path d="M150.856 67.28C150.856 67.36 150.176 67.428 149.336 67.428C148.496 67.428 147.82 67.36 147.82 67.28C147.82 67.2 148.5 67.136 149.336 67.136C150.172 67.136 150.856 67.2 150.856 67.28Z" fill="#B0BEC5"/>
<path d="M161.316 67.344C161.316 67.424 159.84 67.488 158.02 67.488C156.2 67.488 154.724 67.424 154.724 67.344C154.724 67.264 156.2 67.196 158.02 67.196C159.84 67.196 161.316 67.264 161.316 67.344Z" fill="#263238"/>
<path d="M168 67.344C168 67.424 166.736 67.488 165.176 67.488C163.616 67.488 162.352 67.424 162.352 67.344C162.352 67.264 163.616 67.196 165.176 67.196C166.736 67.196 168 67.264 168 67.344Z" fill="#263238"/>
<path d="M176.488 67.344C176.488 67.424 175.2 67.488 173.612 67.488C172.024 67.488 170.732 67.424 170.732 67.344C170.732 67.264 172.02 67.196 173.612 67.196C175.204 67.196 176.488 67.264 176.488 67.344Z" fill="#263238"/>
<path d="M183.916 67.344C183.916 67.424 182.744 67.488 181.3 67.488C179.856 67.488 178.684 67.424 178.684 67.344C178.684 67.264 179.856 67.196 181.3 67.196C182.744 67.196 183.916 67.264 183.916 67.344Z" fill="#263238"/>
<path d="M208.504 67.344C208.504 67.424 203.352 67.488 196.996 67.488C190.64 67.488 185.484 67.424 185.484 67.344C185.484 67.264 190.636 67.196 196.996 67.196C203.356 67.196 208.504 67.264 208.504 67.344Z" fill="#263238"/>
<path d="M150.436 71.152C150.436 71.232 149.852 71.3 149.128 71.3C148.404 71.3 147.82 71.232 147.82 71.152C147.82 71.072 148.404 71.004 149.128 71.004C149.852 71.004 150.436 71.072 150.436 71.152Z" fill="#B0BEC5"/>
<path d="M150.54 75.128C150.54 75.208 149.932 75.276 149.18 75.276C148.428 75.276 147.82 75.208 147.82 75.128C147.82 75.048 148.428 74.98 149.18 74.98C149.932 74.98 150.54 75.048 150.54 75.128Z" fill="#B0BEC5"/>
<path d="M150.54 79.628C150.54 79.708 149.932 79.772 149.18 79.772C148.428 79.772 147.82 79.708 147.82 79.628C147.82 79.548 148.428 79.48 149.18 79.48C149.932 79.48 150.54 79.544 150.54 79.628Z" fill="#B0BEC5"/>
<path d="M175.336 79.416C175.336 79.5 170.792 79.564 165.188 79.564C159.584 79.564 155.04 79.5 155.04 79.416C155.04 79.332 159.584 79.272 165.188 79.272C170.792 79.272 175.336 79.336 175.336 79.416Z" fill="#263238"/>
<path d="M173.56 75.128C173.56 75.208 169.224 75.276 163.88 75.276C158.536 75.276 154.204 75.208 154.204 75.128C154.204 75.048 158.536 74.98 163.88 74.98C169.224 74.98 173.56 75.048 173.56 75.128Z" fill="#263238"/>
<path d="M220.328 70.944C220.328 71.024 205.568 71.088 187.372 71.088C169.176 71.088 154.412 71.024 154.412 70.944C154.412 70.864 169.164 70.796 187.372 70.796C205.58 70.796 220.328 70.86 220.328 70.944Z" fill="#263238"/>
<path d="M253 57.6V114.016L244.228 121.332H253H253.864H290.104V57.6H253Z" fill="#FAFAFA"/>
<path d="M253 57.6C253 57.6 253.22 57.6 253.648 57.6H255.568H262.956L290.104 57.56H290.184V57.64C290.184 74.668 290.184 96.908 290.208 121.372V121.476H283.672H244.228H243.964L244.168 121.304L252.944 113.988L252.908 114.06C252.928 97.192 252.944 83.08 252.956 73.18C252.956 68.24 252.976 64.352 252.98 61.696C252.98 60.376 252.98 59.364 252.98 58.672C252.98 58.336 252.98 58.076 252.98 57.9C252.98 57.724 252.98 57.644 252.98 57.644C252.98 57.644 252.98 57.736 252.98 57.912C252.98 58.088 252.98 58.352 252.98 58.712C252.98 59.404 252.98 60.424 252.98 61.752C252.98 64.412 252.98 68.308 253.004 73.252C253.004 83.14 253.028 97.252 253.048 114.076V114.116L253.016 114.144L244.248 121.468L244.184 121.296H283.628H290.06L289.956 121.4C289.956 96.936 289.956 74.696 289.98 57.668L290.06 57.744L262.96 57.704L255.6 57.6H253.664H253Z" fill="#263238"/>
<path d="M256.372 60.4C256.372 60.5487 256.328 60.6941 256.245 60.8178C256.163 60.9415 256.045 61.0379 255.908 61.0948C255.77 61.1517 255.619 61.1666 255.473 61.1376C255.327 61.1085 255.193 61.0369 255.088 60.9318C254.983 60.8266 254.911 60.6926 254.882 60.5467C254.853 60.4008 254.868 60.2496 254.925 60.1122C254.982 59.9748 255.079 59.8574 255.202 59.7747C255.326 59.6921 255.471 59.648 255.62 59.648C255.819 59.648 256.011 59.7272 256.152 59.8683C256.293 60.0093 256.372 60.2006 256.372 60.4Z" fill="#263238"/>
<path d="M259.092 60.4C259.092 60.5487 259.048 60.6941 258.965 60.8178C258.883 60.9415 258.765 61.0379 258.628 61.0948C258.49 61.1517 258.339 61.1666 258.193 61.1376C258.047 61.1085 257.913 61.0369 257.808 60.9318C257.703 60.8266 257.631 60.6926 257.602 60.5467C257.573 60.4008 257.588 60.2496 257.645 60.1122C257.702 59.9748 257.799 59.8574 257.922 59.7747C258.046 59.6921 258.191 59.648 258.34 59.648C258.539 59.648 258.731 59.7272 258.872 59.8683C259.013 60.0093 259.092 60.2006 259.092 60.4Z" fill="#263238"/>
<path d="M261.812 60.4C261.812 60.5487 261.768 60.6941 261.685 60.8178C261.603 60.9415 261.485 61.0379 261.348 61.0948C261.21 61.1517 261.059 61.1666 260.913 61.1376C260.767 61.1085 260.633 61.0369 260.528 60.9318C260.423 60.8266 260.351 60.6926 260.322 60.5467C260.293 60.4008 260.308 60.2496 260.365 60.1122C260.422 59.9748 260.519 59.8574 260.642 59.7747C260.766 59.6921 260.911 59.648 261.06 59.648C261.259 59.648 261.451 59.7272 261.592 59.8683C261.733 60.0093 261.812 60.2006 261.812 60.4Z" fill="#263238"/>
<path d="M279.904 77.788C279.904 77.856 275.2 77.908 269.4 77.908C263.6 77.908 258.896 77.856 258.896 77.788C258.896 77.72 263.596 77.668 269.4 77.668C275.204 77.668 279.904 77.72 279.904 77.788Z" fill="#B0BEC5"/>
<path d="M284.288 82.892C284.288 82.956 278.564 83.012 271.488 83.012C264.412 83.012 258.688 82.956 258.688 82.892C258.688 82.828 264.412 82.772 271.488 82.772C278.564 82.772 284.288 82.824 284.288 82.892Z" fill="#B0BEC5"/>
<path d="M285.328 101.932C285.328 102 279.224 102.052 271.696 102.052C264.168 102.052 258.064 102 258.064 101.932C258.064 101.864 264.168 101.812 271.696 101.812C279.224 101.812 285.328 101.868 285.328 101.932Z" fill="#B0BEC5"/>
<path d="M260.864 85.488C260.006 85.648 259.126 85.648 258.268 85.488C259.126 85.328 260.006 85.328 260.864 85.488Z" fill="#B0BEC5"/>
<path d="M269.82 85.54C269.82 85.608 268.556 85.66 267.02 85.66C265.484 85.66 264.22 85.608 264.22 85.54C266.097 85.38 267.983 85.38 269.86 85.54H269.82Z" fill="#B0BEC5"/>
<path d="M275.548 85.54C275.548 85.608 274.468 85.66 273.148 85.66C271.828 85.66 270.728 85.608 270.728 85.54C272.336 85.38 273.956 85.38 275.564 85.54H275.548Z" fill="#B0BEC5"/>
<path d="M260.508 88.8C259.77 88.96 259.006 88.96 258.268 88.8C259.006 88.64 259.77 88.64 260.508 88.8Z" fill="#B0BEC5"/>
<path d="M260.596 92.204C259.828 92.364 259.036 92.364 258.268 92.204C259.035 92.0386 259.829 92.0386 260.596 92.204Z" fill="#B0BEC5"/>
<path d="M260.596 96.052C259.828 96.212 259.036 96.212 258.268 96.052C259.036 95.8919 259.828 95.8919 260.596 96.052Z" fill="#B0BEC5"/>
<path d="M281.816 95.872C281.816 95.94 277.928 95.992 273.132 95.992C268.336 95.992 264.448 95.94 264.448 95.872C264.448 95.804 268.336 95.752 273.132 95.752C277.928 95.752 281.816 95.808 281.816 95.872Z" fill="#B0BEC5"/>
<path d="M280.292 92.204C280.292 92.268 276.584 92.324 272.012 92.324C267.44 92.324 263.732 92.268 263.732 92.204C263.732 92.14 267.436 92.08 272.012 92.08C276.588 92.08 280.292 92.136 280.292 92.204Z" fill="#B0BEC5"/>
<path d="M262.292 107.016C261.524 107.176 260.732 107.176 259.964 107.016C260.732 106.856 261.524 106.856 262.292 107.016Z" fill="#B0BEC5"/>
<path d="M262.292 110.868C261.524 111.028 260.732 111.028 259.964 110.868C260.731 110.703 261.525 110.703 262.292 110.868Z" fill="#B0BEC5"/>
<path d="M283.512 110.688C283.512 110.752 279.624 110.808 274.828 110.808C270.032 110.808 266.144 110.752 266.144 110.688C266.144 110.624 270.028 110.568 274.828 110.568C279.628 110.568 283.512 110.62 283.512 110.688Z" fill="#B0BEC5"/>
<path d="M282 107.016C282 107.084 278.292 107.136 273.72 107.136C269.148 107.136 265.436 107.084 265.436 107.016C265.436 106.948 269.144 106.896 273.72 106.896C278.296 106.896 282 106.948 282 107.016Z" fill="#B0BEC5"/>
<path d="M286.452 88.62C286.452 88.688 281.404 88.74 275.18 88.74C268.956 88.74 263.908 88.688 263.908 88.62C263.908 88.552 268.956 88.5 275.18 88.5C281.404 88.5 286.452 88.556 286.452 88.62Z" fill="#B0BEC5"/>
<path d="M289.756 63.352C289.756 63.416 281.608 63.472 271.56 63.472C261.512 63.472 253.364 63.416 253.364 63.352C253.364 63.288 261.508 63.232 271.56 63.232C281.612 63.232 289.756 63.284 289.756 63.352Z" fill="#263238"/>
<path d="M266.572 74.712C264.012 74.872 261.444 74.872 258.884 74.712C258.884 74.644 260.604 74.592 262.728 74.592C264.852 74.592 266.572 74.644 266.572 74.712Z" fill="#B0BEC5"/>
<path d="M262.22 67.748C262.22 67.816 261.42 67.868 260.408 67.868C259.396 67.868 258.596 67.816 258.596 67.748C259.799 67.588 261.017 67.588 262.22 67.748Z" fill="#B0BEC5"/>
<path d="M230.108 149.904L238.164 141.94L223.796 117.336C222.301 115.625 220.408 114.308 218.284 113.5L213.224 111.576L200.644 109.268L191.716 112.8C190.617 113.232 189.693 114.016 189.087 115.029C188.482 116.042 188.229 117.228 188.368 118.4L190.704 138.064L192.08 163.664L224.532 158.032L221.268 148.564L221.376 133.796L230.108 149.904Z" fill="#B0BEC5"/>
<path d="M221.564 147.928C221.64 147.928 221.66 142.812 221.608 136.504C221.556 130.196 221.456 125.08 221.38 125.08C221.304 125.08 221.284 130.196 221.336 136.504C221.388 142.812 221.488 147.928 221.564 147.928Z" fill="#263238"/>
<path d="M220.376 151.68L200.776 143.788C200 143.476 199.327 142.953 198.833 142.279C198.338 141.605 198.041 140.806 197.976 139.972L196.544 121.172C196.544 121.172 196.712 113.172 191.72 112.772L188.876 113.888C185.2 115.856 184.292 121.2 184.8 125.328C185.508 131.192 185.804 139.492 186.6 144.584C187.252 148.748 189.752 152.04 193.712 153.484L217.864 158.712L220.376 151.68Z" fill="#B0BEC5"/>
<path d="M196.82 124.04C196.85 124.181 196.87 124.324 196.88 124.468C196.912 124.776 196.956 125.188 197.008 125.708C197.108 126.808 197.248 128.36 197.408 130.268C197.568 132.176 197.768 134.492 197.988 137.032C198.04 137.668 198.096 138.32 198.152 138.988C198.191 139.66 198.275 140.328 198.404 140.988C198.54 141.661 198.879 142.275 199.376 142.748C199.915 143.219 200.527 143.598 201.188 143.872C206.592 146.212 211.588 148.144 215.188 149.5L219.484 151.1L220.652 151.528C220.79 151.571 220.924 151.628 221.052 151.696C220.916 151.667 220.782 151.628 220.652 151.58L219.452 151.18C218.424 150.84 216.944 150.328 215.124 149.676C211.488 148.36 206.496 146.476 201.072 144.112C200.386 143.825 199.751 143.427 199.192 142.936C198.657 142.428 198.292 141.767 198.148 141.044C198.018 140.368 197.935 139.684 197.9 138.996C197.844 138.329 197.792 137.677 197.744 137.04C197.544 134.496 197.368 132.204 197.216 130.268C197.064 128.332 196.968 126.808 196.884 125.704C196.852 125.184 196.828 124.768 196.808 124.46C196.803 124.32 196.807 124.18 196.82 124.04Z" fill="#263238"/>
<path d="M185.6 134.26C185.628 134.341 185.641 134.426 185.64 134.512C185.64 134.708 185.68 134.948 185.704 135.236C185.764 135.908 185.844 136.808 185.936 137.904C186.028 139 186.18 140.368 186.376 141.848C186.57 143.453 186.866 145.045 187.264 146.612C187.447 147.418 187.77 148.186 188.22 148.88C188.653 149.523 189.143 150.125 189.684 150.68C190.6 151.626 191.66 152.421 192.824 153.036C193.907 153.587 195.069 153.967 196.268 154.164C196.183 154.174 196.097 154.174 196.012 154.164C195.767 154.15 195.524 154.12 195.284 154.072C194.393 153.903 193.529 153.61 192.72 153.2C191.525 152.597 190.436 151.804 189.496 150.852C188.939 150.291 188.435 149.679 187.992 149.024C187.523 148.308 187.185 147.514 186.992 146.68C186.593 145.102 186.302 143.498 186.12 141.88C185.94 140.392 185.82 139.048 185.72 137.92C185.62 136.792 185.596 135.876 185.572 135.244C185.572 134.952 185.572 134.712 185.572 134.512C185.571 134.427 185.58 134.343 185.6 134.26Z" fill="#263238"/>
<path d="M193.972 147.416C194.021 147.047 194.142 146.691 194.328 146.368C194.73 145.565 195.289 144.851 195.972 144.268C196.655 143.684 197.448 143.244 198.304 142.972C198.651 142.839 199.021 142.775 199.392 142.784C199.392 142.828 198.992 142.908 198.368 143.148C197.559 143.462 196.807 143.908 196.144 144.468C195.484 145.037 194.926 145.713 194.492 146.468C194.156 147.036 194 147.428 193.972 147.416Z" fill="#263238"/>
<g opacity="0.3">
<path d="M214.74 149.44C212.644 148.24 210.592 147.344 208.4 146.348C206.208 145.352 204.06 144.072 202.628 142.14C199.92 138.492 200.228 133.228 197.46 129.628L198 136.888C198.168 139.108 197.828 141.288 199.256 142.808C200.456 144.076 202.808 145.052 204.456 145.608C207.796 146.708 211.392 148.344 214.728 149.448" fill="black"/>
</g>
<path opacity="0.3" d="M221.38 126.464L223.076 136.928L221.472 133.964L221.38 126.464Z" fill="black"/>
<path d="M196.228 120C196.08 120.032 195.928 120.044 195.776 120.036L194.536 120.068C193.492 120.096 192.052 120.148 190.464 120.26C188.876 120.372 187.444 120.528 186.404 120.66L185.176 120.804C185.027 120.83 184.875 120.841 184.724 120.836C184.865 120.778 185.013 120.74 185.164 120.724C185.452 120.664 185.868 120.592 186.364 120.512C187.4 120.352 188.836 120.176 190.428 120.06C192.02 119.944 193.468 119.916 194.516 119.928C195.04 119.928 195.464 119.948 195.756 119.964C195.914 119.959 196.072 119.971 196.228 120Z" fill="#455A64"/>
<path d="M196.8 130.024C196.8 130.08 194.232 130.34 191.06 130.6C187.888 130.86 185.304 131.032 185.3 130.972C185.296 130.912 187.864 130.656 191.04 130.392C194.216 130.128 196.8 129.964 196.8 130.024Z" fill="#455A64"/>
<path d="M197.732 140.548C197.607 140.64 197.473 140.717 197.332 140.78C197.064 140.92 196.672 141.104 196.172 141.312C193.577 142.397 190.81 143.017 188 143.144C187.46 143.168 187.024 143.168 186.724 143.144C186.568 143.153 186.412 143.141 186.26 143.108C186.413 143.078 186.568 143.063 186.724 143.064C187.024 143.064 187.456 143.028 187.992 142.984C189.377 142.887 190.754 142.691 192.112 142.4C193.472 142.096 194.809 141.695 196.112 141.2C196.612 141.008 197.016 140.848 197.312 140.732C197.444 140.655 197.585 140.593 197.732 140.548Z" fill="#455A64"/>
<path d="M204.704 145.948C203.995 146.387 203.342 146.911 202.76 147.508C202.229 148.151 201.774 148.853 201.404 149.6C201.43 149.35 201.504 149.107 201.62 148.884C202.116 147.767 202.957 146.839 204.02 146.236C204.226 146.095 204.459 145.997 204.704 145.948Z" fill="#455A64"/>
<path d="M211.796 152.876C212.107 151.424 212.836 150.095 213.892 149.052C213.94 149.092 213.324 149.852 212.748 150.912C212.172 151.972 211.856 152.896 211.796 152.876Z" fill="#455A64"/>
<path d="M200.62 114.12C199.712 114.389 198.785 114.592 197.848 114.728C196.926 114.929 195.99 115.063 195.048 115.128C195.955 114.856 196.882 114.653 197.82 114.52C198.742 114.319 199.678 114.185 200.62 114.12Z" fill="#455A64"/>
<path d="M219.392 114.976C218.104 114.927 216.819 114.81 215.544 114.624C214.261 114.508 212.986 114.321 211.724 114.064C213.012 114.115 214.296 114.232 215.572 114.416C216.854 114.535 218.129 114.722 219.392 114.976Z" fill="#455A64"/>
<path d="M220.992 123.704C220.911 123.716 220.829 123.716 220.748 123.704H220.044H217.456C215.272 123.704 212.256 123.704 208.924 123.804C205.592 123.904 202.58 124.028 200.396 124.144L197.812 124.28L197.112 124.308C197.03 124.32 196.946 124.32 196.864 124.308C196.944 124.289 197.026 124.277 197.108 124.272L197.808 124.2C198.416 124.144 199.296 124.076 200.388 124C202.568 123.848 205.588 123.688 208.92 123.6C212.252 123.512 215.272 123.52 217.46 123.56C218.552 123.58 219.436 123.604 220.044 123.632L220.748 123.664C220.83 123.67 220.912 123.683 220.992 123.704Z" fill="#455A64"/>
<path d="M221.224 134.764C221.224 134.82 216.084 135.204 209.736 135.624C203.388 136.044 198.236 136.332 198.232 136.276C198.228 136.22 203.372 135.832 209.72 135.416C216.068 135 221.22 134.704 221.224 134.764Z" fill="#455A64"/>
<path d="M220.676 144.504C220.539 144.58 220.394 144.642 220.244 144.688C219.96 144.796 219.548 144.936 219.044 145.088C218.016 145.424 216.58 145.844 214.976 146.232C213.372 146.62 211.904 146.896 210.836 147.06C210.3 147.148 209.868 147.208 209.568 147.24C209.412 147.266 209.254 147.277 209.096 147.272C209.245 147.218 209.399 147.18 209.556 147.16L210.808 146.916C211.868 146.712 213.328 146.412 214.928 146.028C216.528 145.644 217.964 145.248 219 144.948L220.228 144.592C220.373 144.544 220.524 144.515 220.676 144.504Z" fill="#455A64"/>
<path d="M228.904 126.848C227.679 127.273 226.432 127.631 225.168 127.92C223.922 128.278 222.657 128.569 221.38 128.792C222.605 128.369 223.852 128.011 225.116 127.72C226.362 127.36 227.626 127.069 228.904 126.848Z" fill="#455A64"/>
<path d="M224.98 119.372C224.448 119.573 223.893 119.708 223.328 119.772C222.773 119.907 222.203 119.974 221.632 119.972C222.166 119.774 222.722 119.639 223.288 119.572C223.842 119.437 224.41 119.37 224.98 119.372Z" fill="#455A64"/>
<path d="M196.88 121.692C196.84 121.692 196.776 121.028 196.412 120.024C195.94 118.712 195.15 117.537 194.112 116.604C193.075 115.672 191.823 115.011 190.468 114.68C189.428 114.424 188.752 114.436 188.756 114.396C188.912 114.368 189.07 114.361 189.228 114.376C189.656 114.393 190.082 114.448 190.5 114.54C191.896 114.836 193.19 115.494 194.252 116.448C195.313 117.402 196.105 118.619 196.548 119.976C196.685 120.382 196.785 120.8 196.844 121.224C196.877 121.378 196.889 121.535 196.88 121.692Z" fill="#263238"/>
<path d="M220.24 116.36C220.541 117.564 220.772 118.785 220.932 120.016C221.164 121.236 221.326 122.469 221.416 123.708C221.12 122.502 220.89 121.28 220.728 120.048C220.496 118.829 220.333 117.598 220.24 116.36Z" fill="#263238"/>
<path d="M242.096 175.316C242.096 175.316 257.168 179.484 257.772 179.716C258.68 180.036 258.528 183.36 257.116 183.316C256.448 183.292 245.54 183.716 244.16 183.636C242.78 183.556 238.624 181.912 238.624 181.912L242.096 175.316Z" fill="#B0BEC5"/>
<path d="M248.376 181.064C248.452 181.064 248.552 180.264 249.04 179.464C249.528 178.664 250.152 178.136 250.104 178.076C250.056 178.016 249.328 178.444 248.82 179.336C248.312 180.228 248.312 181.072 248.376 181.064Z" fill="#263238"/>
<path d="M246.8 180.352C246.872 180.352 247.024 179.652 247.428 178.864C247.832 178.076 248.304 177.528 248.228 177.476C247.761 177.79 247.397 178.233 247.18 178.752C246.8 179.6 246.74 180.348 246.8 180.352Z" fill="#263238"/>
<path d="M245.328 179.96C245.404 179.96 245.328 179.2 245.68 178.36C246.032 177.52 246.556 177.008 246.504 176.952C246.452 176.896 245.796 177.352 245.448 178.272C245.1 179.192 245.268 180 245.328 179.96Z" fill="#263238"/>
<path d="M245.6 178C245.734 177.641 245.79 177.258 245.764 176.876C245.759 176.462 245.707 176.05 245.608 175.648C245.552 175.409 245.477 175.175 245.384 174.948C245.338 174.806 245.255 174.679 245.144 174.58C245.069 174.522 244.976 174.493 244.882 174.498C244.787 174.502 244.697 174.54 244.628 174.604C244.51 174.717 244.437 174.869 244.424 175.032C244.416 175.165 244.416 175.299 244.424 175.432C244.425 175.681 244.456 175.93 244.516 176.172C244.617 176.575 244.774 176.963 244.98 177.324C245.148 177.665 245.377 177.973 245.656 178.232C245.692 178.208 245.44 177.856 245.136 177.24C244.96 176.883 244.825 176.508 244.736 176.12C244.689 175.894 244.665 175.663 244.664 175.432C244.664 175.2 244.664 174.912 244.804 174.8C244.831 174.774 244.867 174.76 244.904 174.76C244.941 174.76 244.977 174.774 245.004 174.8C245.081 174.872 245.137 174.963 245.168 175.064C245.259 175.28 245.335 175.502 245.396 175.728C245.502 176.112 245.569 176.506 245.596 176.904C245.624 177.6 245.556 178 245.6 178Z" fill="#263238"/>
<path d="M245.6 177.86C245.292 177.73 244.957 177.675 244.624 177.7C244.264 177.7 243.905 177.744 243.556 177.832C243.341 177.879 243.133 177.955 242.94 178.06C242.817 178.123 242.717 178.223 242.655 178.347C242.594 178.471 242.575 178.612 242.6 178.748C242.634 178.878 242.702 178.997 242.798 179.091C242.894 179.186 243.013 179.252 243.144 179.284C243.366 179.34 243.598 179.34 243.82 179.284C244.176 179.192 244.51 179.027 244.8 178.8C245.073 178.613 245.31 178.379 245.5 178.108C245.22 178.269 244.953 178.451 244.7 178.652C244.42 178.843 244.107 178.979 243.776 179.052C243.592 179.098 243.4 179.098 243.216 179.052C243.129 179.03 243.049 178.985 242.985 178.923C242.92 178.86 242.873 178.782 242.848 178.696C242.834 178.611 242.849 178.523 242.889 178.447C242.93 178.37 242.994 178.309 243.072 178.272C243.245 178.179 243.429 178.108 243.62 178.06C243.952 177.967 244.292 177.908 244.636 177.884C245.2 177.84 245.572 177.9 245.6 177.86Z" fill="#263238"/>
<path d="M250.692 181.228C250.764 181.228 250.692 180.576 250.988 179.868C251.284 179.16 251.788 178.744 251.724 178.688C251.66 178.632 251.072 178.984 250.756 179.772C250.44 180.56 250.628 181.252 250.692 181.228Z" fill="#263238"/>
<path d="M240.176 181.924C240.359 182.035 240.554 182.126 240.756 182.196C241.303 182.408 241.865 182.582 242.436 182.716C244.324 183.13 246.256 183.312 248.188 183.26C250.448 183.236 252.484 183.136 253.96 183.076L255.704 182.984C255.919 182.982 256.133 182.959 256.344 182.916C256.131 182.882 255.915 182.871 255.7 182.884H253.952L248.188 182.996C246.272 183.044 244.356 182.888 242.472 182.532C241.032 182.248 240.192 181.876 240.176 181.924Z" fill="#263238"/>
<path d="M239.728 182.268C239.728 182.3 240.16 182.06 240.856 181.756C241.743 181.333 242.731 181.168 243.708 181.28C244.668 181.488 245.535 182.004 246.176 182.748C246.445 183.064 246.735 183.36 247.044 183.636C246.844 183.267 246.595 182.927 246.304 182.624C246.008 182.276 245.674 181.964 245.308 181.692C244.848 181.351 244.313 181.125 243.748 181.032C242.73 180.913 241.701 181.112 240.8 181.6C240.409 181.763 240.047 181.989 239.728 182.268Z" fill="#263238"/>
<path d="M224.26 171.816C224.26 171.816 210 181.152 209.484 181.54C208.716 182.12 209.596 184.884 210.928 184.404C211.556 184.18 223.524 180.848 224.812 180.348C226.1 179.848 229.564 177.024 229.564 177.024L224.26 171.816Z" fill="#B0BEC5"/>
<path d="M220.024 179.2C220.084 179.2 219.832 178.364 219.068 177.676C218.304 176.988 217.468 176.8 217.468 176.876C217.468 176.952 218.196 177.22 218.904 177.872C219.612 178.524 219.956 179.236 220.024 179.2Z" fill="#263238"/>
<path d="M221.304 178.044C221.364 178.024 221.088 177.304 220.436 176.644C219.784 175.984 219.076 175.684 219.052 175.744C219.028 175.804 219.64 176.184 220.252 176.82C220.864 177.456 221.236 178.08 221.304 178.044Z" fill="#263238"/>
<path d="M222.588 177.22C222.652 177.22 222.588 176.42 221.964 175.652C221.34 174.884 220.572 174.656 220.56 174.72C220.548 174.784 221.208 175.12 221.76 175.812C222.312 176.504 222.516 177.24 222.588 177.22Z" fill="#263238"/>
<path d="M221.744 175.448C221.78 175.448 221.584 175.048 221.42 174.38C221.326 173.993 221.27 173.598 221.252 173.2C221.238 172.966 221.238 172.73 221.252 172.496C221.252 172.391 221.278 172.288 221.328 172.196C221.349 172.165 221.381 172.144 221.417 172.136C221.454 172.128 221.492 172.133 221.524 172.152C221.688 172.216 221.772 172.492 221.848 172.712C221.919 172.932 221.966 173.158 221.988 173.388C222.025 173.788 222.013 174.191 221.952 174.588C221.852 175.264 221.72 175.676 221.76 175.688C221.948 175.358 222.073 174.996 222.128 174.62C222.215 174.213 222.246 173.796 222.22 173.38C222.203 173.132 222.157 172.886 222.084 172.648C222.045 172.521 221.999 172.397 221.944 172.276C221.883 172.126 221.769 172.004 221.624 171.932C221.538 171.891 221.441 171.882 221.35 171.906C221.258 171.931 221.178 171.986 221.124 172.064C221.048 172.193 221.007 172.339 221.004 172.488C220.988 172.733 220.988 172.979 221.004 173.224C221.032 173.632 221.109 174.034 221.232 174.424C221.325 174.799 221.5 175.149 221.744 175.448Z" fill="#263238"/>
<path d="M221.712 175.296C221.732 175.332 222.064 175.164 222.64 175.024C222.974 174.943 223.316 174.896 223.66 174.884C223.857 174.872 224.054 174.884 224.248 174.92C224.333 174.932 224.411 174.97 224.473 175.03C224.534 175.09 224.574 175.168 224.588 175.252C224.591 175.342 224.571 175.432 224.528 175.512C224.486 175.592 224.424 175.659 224.348 175.708C224.187 175.808 224.005 175.868 223.816 175.884C223.479 175.915 223.14 175.881 222.816 175.784C222.512 175.671 222.201 175.579 221.884 175.508C222.146 175.711 222.445 175.861 222.764 175.952C223.107 176.083 223.474 176.139 223.84 176.116C224.069 176.101 224.292 176.031 224.488 175.912C224.602 175.84 224.695 175.739 224.756 175.62C224.818 175.5 224.847 175.366 224.84 175.232C224.823 175.095 224.762 174.966 224.666 174.867C224.57 174.767 224.445 174.702 224.308 174.68C224.092 174.642 223.871 174.632 223.652 174.652C223.292 174.675 222.936 174.742 222.592 174.852C222.269 174.931 221.968 175.083 221.712 175.296Z" fill="#263238"/>
<path d="M212.744 183.884C212.744 183.908 212.984 183.74 213.096 183.332C213.21 182.801 213.114 182.246 212.828 181.784C212.687 181.534 212.527 181.296 212.348 181.072C212.212 180.877 212.049 180.702 211.864 180.552C211.734 180.446 211.575 180.379 211.408 180.36C211.292 180.36 211.228 180.384 211.232 180.4C211.424 180.457 211.602 180.555 211.752 180.688C211.902 180.848 212.036 181.022 212.152 181.208C212.313 181.432 212.463 181.664 212.6 181.904C212.854 182.321 212.964 182.81 212.912 183.296C212.867 183.495 212.811 183.691 212.744 183.884Z" fill="#263238"/>
<path d="M217.864 180.06C217.932 180.06 217.912 179.34 217.364 178.692C216.816 178.044 216.112 177.892 216.108 177.956C216.104 178.02 216.684 178.26 217.168 178.856C217.652 179.452 217.792 180.072 217.864 180.06Z" fill="#263238"/>
<path d="M228.096 177.528C227.875 177.654 227.665 177.799 227.468 177.96C226.903 178.352 226.317 178.711 225.712 179.036C224.807 179.511 223.871 179.927 222.912 180.28C221.832 180.68 220.62 181.06 219.34 181.432C216.772 182.172 214.448 182.848 212.772 183.352L210.772 183.96C210.526 184.023 210.286 184.109 210.056 184.216C210.308 184.181 210.557 184.126 210.8 184.052L212.8 183.524C214.488 183.064 216.8 182.416 219.384 181.676C220.668 181.304 221.884 180.916 222.984 180.496C223.948 180.13 224.884 179.694 225.784 179.192C226.39 178.851 226.969 178.465 227.516 178.036C227.727 177.888 227.921 177.717 228.096 177.528Z" fill="#263238"/>
<path d="M228.624 177.72C228.244 177.55 227.839 177.442 227.424 177.4C226.412 177.209 225.365 177.336 224.428 177.764C223.918 178.025 223.478 178.403 223.144 178.868C222.876 179.241 222.652 179.644 222.476 180.068C222.289 180.448 222.154 180.852 222.076 181.268C222.287 180.912 222.473 180.542 222.632 180.16C222.972 179.496 223.508 178.524 224.536 178.012C225.435 177.615 226.427 177.476 227.4 177.612C228.152 177.656 228.616 177.76 228.624 177.72Z" fill="#263238"/>
<path d="M253.908 148.464C253.908 148.464 258.184 150 258.204 154.8C258.236 164 239.636 174.12 239.636 174.12L214.88 157.72L213.328 157.092C213.328 157.092 246.744 144.524 253.908 148.464Z" fill="#263238"/>
<path d="M227.42 166C227.648 165.876 227.864 165.73 228.064 165.564C228.464 165.272 229.048 164.832 229.76 164.284C231.176 163.192 233.104 161.636 235.18 159.856C237.256 158.076 239.08 156.404 240.38 155.168C241.028 154.552 241.548 154.044 241.9 153.688C242.093 153.514 242.27 153.323 242.428 153.116C242.216 153.266 242.017 153.434 241.832 153.616L240.26 155.036C238.932 156.236 237.088 157.888 235.016 159.664C232.944 161.44 231.04 163.016 229.652 164.148L228 165.476C227.793 165.634 227.599 165.81 227.42 166Z" fill="#455A64"/>
<path d="M246.92 151.896C246.114 151.77 245.289 151.845 244.52 152.116C243.228 152.492 242.36 153.18 242.4 153.228C242.44 153.276 243.344 152.72 244.592 152.356C245.84 151.992 246.92 151.976 246.92 151.896Z" fill="#455A64"/>
<path d="M244.8 150.448C244.21 150.656 243.699 151.042 243.336 151.552C242.676 152.352 242.5 153.212 242.564 153.22C242.628 153.228 242.908 152.476 243.532 151.712C244.156 150.948 244.824 150.516 244.8 150.448Z" fill="#455A64"/>
<path d="M255.268 179.548C255.268 179.52 254.972 179.46 254.628 179.74C254.227 180.118 253.974 180.628 253.916 181.176C253.83 181.72 253.908 182.277 254.14 182.776C254.316 183.152 254.508 183.332 254.54 183.312C254.572 183.292 254.44 183.08 254.316 182.712C254.156 182.235 254.108 181.727 254.176 181.228C254.232 180.733 254.435 180.266 254.76 179.888C255.012 179.6 255.272 179.6 255.268 179.548Z" fill="#263238"/>
<path d="M252.136 135.412L245.096 154.4C244.9 154.929 244.544 155.385 244.079 155.704C243.613 156.024 243.06 156.191 242.496 156.184L203.728 155.672V152.728L218.128 153.252L224.232 134.316C224.333 134.004 224.531 133.733 224.796 133.54C225.061 133.348 225.38 133.244 225.708 133.244L250.716 133.316C250.964 133.32 251.208 133.384 251.426 133.503C251.644 133.621 251.831 133.79 251.97 133.996C252.109 134.201 252.197 134.437 252.226 134.683C252.255 134.93 252.224 135.18 252.136 135.412Z" fill="#E0E0E0"/>
<path d="M252.136 135.412C252.136 135.412 252.136 135.412 252.136 135.352C252.157 135.295 252.173 135.236 252.184 135.176C252.242 134.941 252.242 134.695 252.184 134.46C252.103 134.149 251.926 133.871 251.677 133.667C251.428 133.462 251.121 133.342 250.8 133.324C250.536 133.324 250.244 133.324 249.94 133.324H239.508H232.2H228.092H225.936C225.576 133.288 225.215 133.368 224.904 133.552C224.595 133.747 224.366 134.046 224.26 134.396L218.172 153.3V153.344H218.124L203.724 152.824L203.788 152.76V155.704L203.728 155.644L228.104 155.968L238.7 156.116L241.144 156.148H242.344C242.726 156.171 243.108 156.115 243.468 155.984C243.817 155.857 244.136 155.658 244.404 155.4C244.672 155.143 244.883 154.832 245.024 154.488C245.28 153.8 245.532 153.124 245.78 152.468C247.744 147.2 249.332 142.944 250.428 140C250.98 138.536 251.404 137.396 251.696 136.62C251.988 135.844 252.144 135.448 252.144 135.448C252.144 135.448 252.004 135.848 251.72 136.648L250.464 140C249.376 142.948 247.804 147.2 245.852 152.48L245.1 154.508C244.955 154.863 244.738 155.183 244.462 155.45C244.187 155.716 243.859 155.923 243.5 156.056C243.128 156.192 242.732 156.252 242.336 156.232H241.136L238.696 156.2L228.1 156.068L203.72 155.752H203.66V152.68H203.724L218.124 153.208L218.064 153.252L224.168 134.352C224.28 133.978 224.525 133.658 224.856 133.452C225.184 133.259 225.565 133.175 225.944 133.212H228.1H232.208L239.516 133.244L249.948 133.292C250.252 133.292 250.54 133.292 250.812 133.292C251.14 133.314 251.453 133.439 251.705 133.649C251.957 133.86 252.136 134.145 252.216 134.464C252.275 134.7 252.275 134.948 252.216 135.184C252.196 135.262 252.169 135.338 252.136 135.412Z" fill="#263238"/>
<path d="M234.948 142.584C235.248 142.432 235.585 142.37 235.92 142.406C236.254 142.441 236.571 142.573 236.832 142.784C237.053 142.994 237.206 143.266 237.271 143.564C237.337 143.862 237.312 144.172 237.2 144.456C237.078 144.736 236.882 144.976 236.632 145.15C236.382 145.325 236.088 145.426 235.784 145.444C235.461 145.465 235.14 145.38 234.87 145.201C234.6 145.023 234.395 144.761 234.288 144.456C234.108 143.836 234.288 142.912 234.948 142.584Z" fill="white"/>
<path d="M243.808 175.14C243.808 175.14 208.872 152.764 207.332 151.884C206.02 151.136 202.508 148.976 199.048 149.932C195.588 150.888 192.484 154 190.932 158.524C190.048 161.116 189.628 165.536 189.432 168.852C189.168 172.823 190.459 176.74 193.032 179.776C194.171 181.192 195.68 182.264 197.392 182.872C197.756 182.984 198.136 183.08 198.524 183.164C205.136 184.6 211.932 181.632 215.648 175.964L216.448 174.724C216.448 174.724 239.328 183.124 239.684 183.008L243.808 175.14Z" fill="#263238"/>
<path d="M209.136 153.124C209.136 153.124 209.104 153.124 209.048 153.072L208.804 152.904C208.588 152.756 208.272 152.54 207.86 152.272C206.696 151.508 205.451 150.876 204.148 150.388C203.248 150.057 202.305 149.859 201.348 149.8C200.257 149.754 199.168 149.933 198.148 150.324C197.016 150.761 195.971 151.395 195.06 152.196C194.572 152.613 194.114 153.064 193.688 153.544C193.257 154.038 192.877 154.574 192.552 155.144C191.909 156.28 191.404 157.488 191.048 158.744C190.716 159.964 190.452 161.168 190.204 162.304C189.742 164.316 189.475 166.368 189.404 168.432C189.379 169.824 189.485 171.216 189.72 172.588C189.796 173.076 189.884 173.448 189.936 173.704L189.992 173.996C189.997 174.029 189.997 174.063 189.992 174.096C189.978 174.065 189.967 174.033 189.96 174C189.96 173.924 189.912 173.828 189.884 173.712C189.816 173.46 189.716 173.092 189.628 172.604C189.354 171.23 189.22 169.833 189.228 168.432C189.282 166.36 189.54 164.297 190 162.276C190.248 161.132 190.504 159.936 190.832 158.7C191.195 157.428 191.707 156.204 192.356 155.052C192.688 154.467 193.076 153.916 193.516 153.408C193.949 152.92 194.415 152.463 194.912 152.04C195.843 151.227 196.91 150.585 198.064 150.144C199.114 149.746 200.235 149.569 201.356 149.624C202.325 149.695 203.279 149.906 204.188 150.248C205.498 150.749 206.743 151.406 207.896 152.204C208.296 152.484 208.612 152.712 208.82 152.872L209.052 153.056C209.083 153.074 209.112 153.097 209.136 153.124Z" fill="#455A64"/>
<path d="M200.54 168.824C200.602 168.857 200.666 168.886 200.732 168.912L201.304 169.136L203.52 170L211.76 173.104C215.26 174.408 219.456 175.964 224.16 177.676C228.864 179.388 234.076 181.276 239.644 183.148L239.748 183.18L239.796 183.088C240.668 181.416 241.592 179.656 242.528 177.868L243.92 175.2L243.976 175.096L243.876 175.036L217.2 158.1L209.2 153.044L207.024 151.684L206.456 151.34C206.393 151.299 206.327 151.262 206.26 151.228C206.26 151.228 206.32 151.276 206.444 151.36L207 151.728L209.152 153.124L217.124 158.244L243.756 175.248L243.712 175.084C243.272 175.928 242.8 176.832 242.32 177.744L239.592 182.964L239.74 182.9C234.176 181.02 228.96 179.152 224.252 177.456L211.852 172.94L203.584 169.908L201.352 169.108L200.772 168.904L200.54 168.824Z" fill="#455A64"/>
<path d="M203.232 89.448L200.432 109.788C200.319 110.608 200.373 111.442 200.592 112.24C200.812 113.037 201.191 113.782 201.707 114.429C202.222 115.076 202.864 115.611 203.594 116.002C204.323 116.393 205.124 116.632 205.948 116.704C207.511 116.84 209.066 116.369 210.291 115.39C211.517 114.411 212.319 112.998 212.532 111.444C212.74 109.912 212.932 108.644 212.932 108.48C212.932 108.48 218.176 108.704 219.256 103.632C219.776 101.18 220.456 96.032 220.984 91.388C221.265 88.9816 220.631 86.5575 219.209 84.5964C217.786 82.6353 215.679 81.2803 213.304 80.8L212.812 80.704C207.46 79.948 203.832 84.076 203.232 89.448Z" fill="#FDBA99"/>
<path d="M212.98 108.4C210.624 107.976 208.446 106.863 206.724 105.2C206.724 105.2 207.56 109.176 212.724 109.732L212.98 108.4Z" fill="#EB996E"/>
<path d="M218.728 95.712C218.692 95.9019 218.583 96.0701 218.425 96.1807C218.266 96.2914 218.071 96.3356 217.88 96.304C217.787 96.2927 217.697 96.2629 217.615 96.2164C217.533 96.1699 217.462 96.1076 217.404 96.0331C217.347 95.9587 217.305 95.8735 217.281 95.7827C217.257 95.6918 217.251 95.5971 217.264 95.504C217.299 95.3142 217.407 95.1457 217.565 95.0343C217.722 94.923 217.917 94.8777 218.108 94.908C218.202 94.9188 218.293 94.9484 218.375 94.9949C218.458 95.0415 218.53 95.1041 218.588 95.179C218.646 95.254 218.688 95.3398 218.712 95.4313C218.736 95.5229 218.741 95.6183 218.728 95.712Z" fill="#263238"/>
<path d="M219.416 93.664C219.308 93.74 218.84 93.224 218.056 93.072C217.272 92.92 216.624 93.192 216.56 93.072C216.528 93.02 216.652 92.868 216.96 92.736C217.338 92.5721 217.757 92.5288 218.16 92.612C218.567 92.6911 218.939 92.8986 219.22 93.204C219.424 93.444 219.472 93.632 219.416 93.664Z" fill="#263238"/>
<path d="M211.44 94.452C211.404 94.6419 211.295 94.8101 211.137 94.9207C210.978 95.0313 210.783 95.0756 210.592 95.044C210.498 95.0332 210.408 95.0037 210.326 94.9574C210.244 94.911 210.172 94.8487 210.115 94.7741C210.058 94.6996 210.016 94.6142 209.992 94.5231C209.968 94.4321 209.963 94.3372 209.976 94.244C210.011 94.0544 210.119 93.8862 210.277 93.7755C210.435 93.6648 210.63 93.6205 210.82 93.652C210.914 93.6628 211.004 93.6923 211.086 93.7386C211.168 93.7849 211.24 93.8471 211.298 93.9216C211.356 93.9961 211.398 94.0814 211.423 94.1725C211.447 94.2636 211.453 94.3586 211.44 94.452Z" fill="#263238"/>
<path d="M211.708 92.276C211.596 92.352 211.128 91.836 210.344 91.68C209.56 91.524 208.912 91.804 208.848 91.68C208.816 91.628 208.94 91.476 209.248 91.344C209.626 91.1801 210.045 91.1368 210.448 91.22C210.854 91.2996 211.225 91.5054 211.508 91.808C211.712 92.056 211.76 92.24 211.708 92.276Z" fill="#263238"/>
<path d="M213.384 98.64C213.822 98.5914 214.264 98.5995 214.7 98.664C214.904 98.684 215.1 98.664 215.16 98.552C215.224 98.3503 215.224 98.1338 215.16 97.932C215.072 97.412 214.976 96.868 214.876 96.296C214.476 93.968 214.252 92.072 214.344 92.056C214.436 92.04 214.828 93.916 215.216 96.244C215.304 96.816 215.392 97.36 215.476 97.884C215.551 98.1488 215.532 98.4312 215.424 98.684C215.379 98.7502 215.32 98.8052 215.251 98.8447C215.181 98.8842 215.104 98.9073 215.024 98.912C214.907 98.9193 214.79 98.9112 214.676 98.888C214.237 98.8604 213.802 98.777 213.384 98.64Z" fill="#263238"/>
<path d="M210.976 98.72C211.104 98.72 210.936 99.588 211.544 100.32C212.152 101.052 213.072 101.156 213.052 101.276C213.052 101.332 212.82 101.4 212.436 101.336C211.937 101.242 211.487 100.976 211.164 100.584C210.863 100.205 210.72 99.7255 210.764 99.244C210.8 98.896 210.92 98.704 210.976 98.72Z" fill="#263238"/>
<path d="M212.52 89.252C212.4 89.448 211.64 89.192 210.7 89.12C209.76 89.048 208.972 89.148 208.888 88.936C208.852 88.832 209.02 88.66 209.36 88.512C209.81 88.342 210.293 88.2756 210.772 88.3179C211.251 88.3601 211.715 88.5099 212.128 88.756C212.436 88.956 212.572 89.16 212.52 89.252Z" fill="#B0BEC5"/>
<path d="M219.6 91.344C219.424 91.496 218.924 91.204 218.28 91.064C217.636 90.924 217.08 90.944 216.968 90.736C216.932 90.632 217.052 90.472 217.328 90.336C217.69 90.1991 218.084 90.1728 218.461 90.2604C218.837 90.348 219.18 90.5456 219.444 90.828C219.62 91.072 219.66 91.272 219.6 91.344Z" fill="#B0BEC5"/>
<path d="M202.896 93.296C202.816 93.24 199.608 91.564 199.024 95.064C198.44 98.564 202.076 98.428 202.096 98.328C202.116 98.228 202.896 93.296 202.896 93.296Z" fill="#FFBE9D"/>
<path d="M201.248 96.824C201.248 96.824 201.18 96.856 201.072 96.884C200.916 96.9231 200.751 96.9001 200.612 96.82C200.264 96.62 200.052 95.984 200.14 95.348C200.182 95.0469 200.29 94.7587 200.456 94.504C200.507 94.3993 200.582 94.3084 200.675 94.2388C200.769 94.1692 200.877 94.123 200.992 94.104C201.065 94.0975 201.138 94.1166 201.199 94.1583C201.26 94.1999 201.304 94.2613 201.324 94.332C201.356 94.44 201.324 94.504 201.324 94.512C201.324 94.52 201.408 94.468 201.404 94.32C201.399 94.2297 201.364 94.1437 201.304 94.076C201.219 93.987 201.103 93.9352 200.98 93.932C200.831 93.9363 200.687 93.9786 200.559 94.055C200.432 94.1313 200.326 94.2391 200.252 94.368C200.053 94.646 199.925 94.9689 199.88 95.308C199.784 96.016 200.036 96.736 200.516 96.968C200.606 97.0104 200.704 97.0324 200.804 97.0324C200.904 97.0324 201.002 97.0104 201.092 96.968C201.228 96.908 201.26 96.832 201.248 96.824Z" fill="#EB996E"/>
<path d="M222 86.664C221.4 87.956 218.312 88.456 216.048 87.772C213.964 87.144 213.204 85.82 211.88 84.664C211.04 83.932 211.04 83.932 209.668 83.792C208.56 83.676 207.668 84.78 206.832 85.512C207.3 88.312 206.064 91.048 204.856 93.596C204.754 93.8937 204.556 94.1487 204.292 94.32C203.82 94.552 203.252 94.184 202.968 93.736C202.569 92.9823 202.399 92.129 202.476 91.28C202.487 89.3441 202.883 87.4297 203.64 85.648C204.399 83.8534 205.671 82.3228 207.296 81.248C209.378 79.975 211.874 79.5618 214.256 80.096C216.624 80.644 218.758 81.9247 220.356 83.756C221.136 84.5665 221.701 85.5593 222 86.644" fill="#B0BEC5"/>
<path d="M214.896 95.12C214.928 95.12 214.896 94.82 215.056 94.32C215.26 93.6001 215.696 92.9676 216.296 92.52C216.735 92.1954 217.248 91.9849 217.788 91.9074C218.328 91.8299 218.879 91.8878 219.392 92.076C219.997 92.2976 220.522 92.6945 220.9 93.216C221.308 93.7723 221.528 94.4442 221.528 95.134C221.528 95.8238 221.308 96.4957 220.9 97.052C220.522 97.5734 219.997 97.9703 219.392 98.192C218.879 98.3803 218.328 98.438 217.787 98.3598C217.247 98.2816 216.734 98.0699 216.296 97.744C215.696 97.2985 215.26 96.667 215.056 95.948C214.916 95.436 214.928 95.148 214.896 95.148C214.887 95.221 214.887 95.295 214.896 95.368C214.895 95.5768 214.919 95.785 214.968 95.988C215.137 96.7556 215.57 97.4394 216.192 97.92C216.561 98.2017 216.982 98.4068 217.431 98.5232C217.88 98.6397 218.348 98.6651 218.808 98.598C219.267 98.5309 219.708 98.3727 220.105 98.1326C220.502 97.8925 220.847 97.5754 221.12 97.2C221.569 96.5987 221.811 95.8684 221.811 95.118C221.811 94.3676 221.569 93.6373 221.12 93.036C220.845 92.6607 220.497 92.3444 220.097 92.1059C219.698 91.8673 219.254 91.7113 218.793 91.6472C218.332 91.583 217.863 91.612 217.414 91.7324C216.964 91.8528 216.543 92.0621 216.176 92.348C215.554 92.8271 215.121 93.5096 214.952 94.276C214.903 94.4803 214.879 94.6899 214.88 94.9C214.875 94.9737 214.88 95.0478 214.896 95.12Z" fill="#263238"/>
<path d="M206.596 93.672C206.628 93.672 206.596 93.372 206.756 92.872C206.96 92.1518 207.396 91.519 207.996 91.072C208.435 90.7467 208.947 90.5358 209.488 90.4583C210.028 90.3808 210.58 90.4391 211.092 90.628C211.696 90.8481 212.222 91.2437 212.6 91.764C213.008 92.321 213.228 92.9935 213.228 93.684C213.228 94.3745 213.008 95.0471 212.6 95.604C212.223 96.1257 211.697 96.5216 211.092 96.74C210.58 96.9289 210.028 96.9872 209.488 96.9097C208.947 96.8322 208.435 96.6213 207.996 96.296C207.396 95.8491 206.96 95.2163 206.756 94.496C206.616 93.988 206.628 93.696 206.596 93.696C206.587 93.7677 206.587 93.8403 206.596 93.912C206.595 94.1222 206.619 94.3317 206.668 94.536C206.837 95.3036 207.27 95.9874 207.892 96.468C208.26 96.7535 208.681 96.9624 209.131 97.0826C209.581 97.2027 210.05 97.2315 210.511 97.1674C210.972 97.1033 211.416 96.9475 211.816 96.7092C212.216 96.4709 212.564 96.155 212.84 95.78C213.288 95.1776 213.53 94.4468 213.53 93.696C213.53 92.9452 213.288 92.2144 212.84 91.612C212.565 91.2367 212.217 90.9204 211.817 90.6819C211.418 90.4433 210.974 90.2874 210.513 90.2232C210.052 90.1591 209.583 90.188 209.134 90.3084C208.684 90.4288 208.263 90.6381 207.896 90.924C207.275 91.4053 206.842 92.0888 206.672 92.856C206.623 93.0604 206.599 93.2699 206.6 93.48C206.591 93.5436 206.59 93.6081 206.596 93.672Z" fill="#263238"/>
<path d="M213.436 93.792C213.472 93.86 213.916 93.652 214.432 93.812C214.948 93.972 215.208 94.384 215.276 94.344C215.344 94.304 215.276 94.196 215.176 94.02C215.017 93.7898 214.784 93.6204 214.516 93.5398C214.247 93.4591 213.96 93.4719 213.7 93.576C213.504 93.656 213.416 93.76 213.436 93.792Z" fill="#263238"/>
<path d="M201.896 92.776C201.896 92.856 203.012 92.9 204.388 92.884C205.764 92.868 206.876 92.784 206.876 92.704C206.876 92.624 205.76 92.58 204.384 92.6C203.008 92.62 201.896 92.696 201.896 92.776Z" fill="#263238"/>
<path d="M223.652 83.324C223.652 83.437 223.633 83.5492 223.596 83.656C223.497 83.9516 223.315 84.2125 223.072 84.408C222.713 84.7026 222.274 84.8824 221.812 84.924C221.255 84.9689 220.694 84.9393 220.144 84.836C219.145 84.6885 218.154 84.4896 217.176 84.24C216.8 84.14 216.496 84.056 216.292 83.992L216.052 83.916L215.972 83.884C215.972 83.884 216.004 83.884 216.056 83.884L216.3 83.944L217.188 84.164C217.94 84.344 218.988 84.564 220.156 84.74C220.699 84.8422 221.253 84.8731 221.804 84.832C222.253 84.7951 222.682 84.6268 223.036 84.348C223.274 84.1623 223.457 83.9146 223.564 83.632C223.636 83.444 223.64 83.32 223.652 83.324Z" fill="white"/>
<path d="M224.428 84.116C224.379 84.4497 224.277 84.7736 224.128 85.076C223.781 85.8186 223.22 86.4401 222.516 86.8602C221.812 87.2802 220.998 87.4794 220.18 87.432C219.844 87.4208 219.512 87.3574 219.196 87.244C219.285 87.2545 219.373 87.2718 219.46 87.296C219.699 87.3405 219.941 87.3672 220.184 87.376C220.988 87.4053 221.783 87.2011 222.473 86.7879C223.163 86.3747 223.718 85.7704 224.072 85.048C224.184 84.8317 224.275 84.6054 224.344 84.372C224.366 84.2849 224.394 84.1993 224.428 84.116Z" fill="white"/>
</svg>
